<svg width="23" height="23" viewBox="0 0 23 23" fill="none" xmlns="http://www.w3.org/2000/svg">
<path d="M12.955 3.15655C12.955 3.62109 12.7705 4.06661 12.442 4.39509C12.1135 4.72357 11.668 4.90811 11.2035 4.90811C10.7389 4.90811 10.2934 4.72357 9.96492 4.39509C9.63644 4.06661 9.4519 3.62109 9.4519 3.15655C9.4519 2.69201 9.63644 2.24649 9.96492 1.91801C10.2934 1.58953 10.7389 1.40499 11.2035 1.40499C11.668 1.40499 12.1135 1.58953 12.442 1.91801C12.7705 2.24649 12.955 2.69201 12.955 3.15655ZM14.3563 3.15655C14.3563 2.74252 14.2747 2.33254 14.1163 1.95002C13.9578 1.5675 13.7256 1.21994 13.4328 0.927176C13.1401 0.63441 12.7925 0.402176 12.41 0.243732C12.0275 0.0852883 11.6175 0.0037384 11.2035 0.0037384C10.7894 0.0037384 10.3794 0.0852883 9.99693 0.243732C9.61442 0.402176 9.26685 0.63441 8.97409 0.927176C8.68132 1.21994 8.44909 1.5675 8.29064 1.95002C8.1322 2.33254 8.05065 2.74252 8.05065 3.15655C8.05065 3.99273 8.38282 4.79466 8.97409 5.38593C9.56535 5.97719 10.3673 6.30936 11.2035 6.30936C12.0396 6.30936 12.8416 5.97719 13.4328 5.38593C14.0241 4.79466 14.3563 3.99273 14.3563 3.15655ZM10.5028 16.1181V20.3219C10.5028 20.5077 10.5767 20.6859 10.708 20.8173C10.8394 20.9487 11.0176 21.0225 11.2035 21.0225C11.3893 21.0225 11.5675 20.9487 11.6989 20.8173C11.8303 20.6859 11.9041 20.5077 11.9041 20.3219V16.1181C11.9041 15.9323 11.8303 15.7541 11.6989 15.6227C11.5675 15.4913 11.3893 15.4175 11.2035 15.4175C11.0176 15.4175 10.8394 15.4913 10.708 15.6227C10.5767 15.7541 10.5028 15.9323 10.5028 16.1181ZM19.3821 6.66248C18.9183 6.35331 18.3507 6.24104 17.8041 6.35036C17.2575 6.45967 16.7767 6.78163 16.4675 7.2454C16.3333 7.44836 16.1341 7.59973 15.9026 7.67474C15.6711 7.74975 15.421 7.74396 15.1933 7.6583C12.629 6.69515 9.80226 6.69515 7.23792 7.6583C7.00966 7.74557 6.75846 7.7524 6.52579 7.67768C6.29312 7.60295 6.09288 7.45113 5.95811 7.24727C5.80689 7.0133 5.6107 6.81169 5.38094 6.65416C5.15117 6.49662 4.89241 6.38628 4.61966 6.32956C4.34691 6.27283 4.06561 6.27085 3.79208 6.32371C3.51856 6.37658 3.25826 6.48324 3.02629 6.63752C2.79432 6.79179 2.5953 6.9906 2.44079 7.22241C2.28627 7.45422 2.17934 7.71441 2.12619 7.98788C2.07304 8.26135 2.07474 8.54265 2.13118 8.81546C2.18762 9.08827 2.29769 9.34715 2.45499 9.57708C3.10745 10.5617 4.07176 11.2987 5.19321 11.6697C6.31465 12.0407 7.52821 12.0242 8.63917 11.6229L7.70127 10.9634V20.3219C7.70127 20.8793 7.92272 21.4139 8.31689 21.8081C8.71107 22.2023 9.24569 22.4237 9.80315 22.4237C10.3606 22.4237 10.8952 22.2023 11.2894 21.8081C11.6836 21.4139 11.905 20.8793 11.905 20.3219H10.5038C10.5038 20.8793 10.7252 21.4139 11.1194 21.8081C11.5136 22.2023 12.0482 22.4237 12.6056 22.4237C13.1631 22.4237 13.6977 22.2023 14.0919 21.8081C14.4861 21.4139 14.7075 20.8793 14.7075 20.3219L14.7131 10.9578H14.0125L13.7743 11.6164C14.8856 12.021 16.1008 12.0397 17.224 11.6694C18.3473 11.2991 19.3131 10.5614 19.9659 9.57521C20.2744 9.11143 20.3862 8.54417 20.2767 7.99803C20.1673 7.45189 19.8455 6.97153 19.3821 6.66248ZM18.6049 7.82832C18.7595 7.93139 18.8668 8.09165 18.9032 8.27385C18.9396 8.45604 18.9022 8.64525 18.7992 8.79985C18.3199 9.52493 17.6103 10.0673 16.7848 10.3394C15.9593 10.6114 15.0662 10.5973 14.2498 10.2992C14.1441 10.2611 14.0307 10.2491 13.9193 10.264C13.808 10.2789 13.7018 10.3205 13.6099 10.385C13.5179 10.4496 13.4428 10.5353 13.391 10.635C13.3391 10.7347 13.312 10.8454 13.3119 10.9578L13.3063 20.3219C13.3063 20.5077 13.2325 20.6859 13.1011 20.8173C12.9697 20.9487 12.7915 21.0225 12.6056 21.0225C12.4198 21.0225 12.2416 20.9487 12.1102 20.8173C11.9788 20.6859 11.905 20.5077 11.905 20.3219C11.905 19.3877 10.5038 19.3877 10.5038 20.3219C10.5038 20.5077 10.43 20.6859 10.2986 20.8173C10.1672 20.9487 9.98896 21.0225 9.80315 21.0225C9.61733 21.0225 9.43912 20.9487 9.30773 20.8173C9.17634 20.6859 9.10252 20.5077 9.10252 20.3219V10.9634C9.10247 10.8509 9.07534 10.7401 9.02343 10.6403C8.97151 10.5405 8.89633 10.4547 8.80425 10.3901C8.71217 10.3255 8.60589 10.284 8.49439 10.2692C8.38289 10.2543 8.26946 10.2666 8.16368 10.3048C7.34784 10.599 6.45682 10.6107 5.63354 10.338C4.81026 10.0653 4.10244 9.52391 3.62363 8.80079C3.56695 8.72429 3.52641 8.63708 3.50447 8.54444C3.48253 8.4518 3.47965 8.35567 3.49601 8.26188C3.51236 8.16809 3.54761 8.0786 3.5996 7.99886C3.6516 7.91911 3.71927 7.85076 3.79849 7.79797C3.87771 7.74517 3.96684 7.70903 4.06046 7.69174C4.15408 7.67445 4.25024 7.67637 4.34309 7.69738C4.43595 7.71839 4.52357 7.75805 4.60062 7.81397C4.67768 7.86988 4.74256 7.94087 4.79134 8.02263C5.10184 8.49064 5.56226 8.83917 6.09699 9.01096C6.63172 9.18275 7.20898 9.16761 7.73397 8.968C9.97959 8.12526 12.4547 8.12559 14.7 8.96894C15.2243 9.16613 15.7999 9.17972 16.3328 9.0075C16.8658 8.83528 17.3246 8.48743 17.6343 8.02076C17.7375 7.86658 17.8976 7.75964 18.0796 7.72339C18.2615 7.68713 18.4504 7.72453 18.6049 7.82738V7.82832ZM16.815 4.90811C16.815 4.35066 17.0364 3.81604 17.4306 3.42186C17.8248 3.02769 18.3594 2.80624 18.9169 2.80624C19.4743 2.80624 20.0089 3.02769 20.4031 3.42186C20.7973 3.81604 21.0188 4.35066 21.0188 4.90811L21.7194 4.20749H16.1144L16.815 4.90811ZM15.4138 4.90811C15.4138 5.29486 15.7276 5.60874 16.1144 5.60874H21.7194C21.9052 5.60874 22.0834 5.53492 22.2148 5.40353C22.3462 5.27214 22.42 5.09393 22.42 4.90811C22.42 3.97903 22.0509 3.08799 21.394 2.43103C20.737 1.77407 19.846 1.40499 18.9169 1.40499C17.9878 1.40499 17.0968 1.77407 16.4398 2.43103C15.7828 3.08799 15.4138 3.97903 15.4138 4.90811ZM19.6175 2.10561V0.704363C19.6175 0.518546 19.5437 0.340339 19.4123 0.208947C19.2809 0.0775541 19.1027 0.00373847 18.9169 0.00373847C18.7311 0.00373847 18.5529 0.0775541 18.4215 0.208947C18.2901 0.340339 18.2163 0.518546 18.2163 0.704363V2.10561C18.2163 2.29143 18.2901 2.46964 18.4215 2.60103C18.5529 2.73242 18.7311 2.80624 18.9169 2.80624C19.1027 2.80624 19.2809 2.73242 19.4123 2.60103C19.5437 2.46964 19.6175 2.29143 19.6175 2.10561ZM1.40125 4.90811C1.40125 4.35066 1.6227 3.81604 2.01687 3.42186C2.41105 3.02769 2.94567 2.80624 3.50313 2.80624C4.06058 2.80624 4.5952 3.02769 4.98937 3.42186C5.38355 3.81604 5.605 4.35066 5.605 4.90811L6.30563 4.20749H0.700625L1.40125 4.90811ZM0 4.90811C0 5.29486 0.31388 5.60874 0.700625 5.60874H6.30563C6.49144 5.60874 6.66965 5.53492 6.80104 5.40353C6.93243 5.27214 7.00625 5.09393 7.00625 4.90811C7.00625 3.97903 6.63717 3.08799 5.98021 2.43103C5.32325 1.77407 4.43221 1.40499 3.50313 1.40499C2.57404 1.40499 1.683 1.77407 1.02604 2.43103C0.369078 3.08799 0 3.97903 0 4.90811ZM4.20375 2.10561V0.704363C4.20375 0.518546 4.12993 0.340339 3.99854 0.208947C3.86715 0.0775541 3.68894 0.00373847 3.50313 0.00373847C3.31731 0.00373847 3.1391 0.0775541 3.00771 0.208947C2.87632 0.340339 2.8025 0.518546 2.8025 0.704363V2.10561C2.8025 2.29143 2.87632 2.46964 3.00771 2.60103C3.1391 2.73242 3.31731 2.80624 3.50313 2.80624C3.68894 2.80624 3.86715 2.73242 3.99854 2.60103C4.12993 2.46964 4.20375 2.29143 4.20375 2.10561Z" fill="#272727"/>
</svg>
