<svg width="17" height="19" viewBox="0 0 17 19" fill="none" xmlns="http://www.w3.org/2000/svg">
<path d="M15.2827 7.2827H5.25773C4.88802 7.28516 4.53414 7.43312 4.27271 7.69455C4.01128 7.95598 3.86332 8.30986 3.86086 8.67958V11.9093H1.40148C1.03204 11.9121 0.678564 12.0603 0.417466 12.3217C0.156368 12.583 0.0086237 12.9367 0.00617178 13.3061V15.6186C0.0086237 15.9881 0.156368 16.3417 0.417466 16.6031C0.678564 16.8645 1.03204 17.0126 1.40148 17.0155H2.41242C2.75617 18.1611 3.96367 18.811 5.1093 18.4672C5.45245 18.3642 5.76468 18.1776 6.01801 17.9243C6.27135 17.6709 6.45787 17.3587 6.56086 17.0155H10.1234C10.4671 18.1611 11.6746 18.811 12.8202 18.4672C13.1634 18.3642 13.4756 18.1776 13.729 17.9243C13.9823 17.6709 14.1688 17.3587 14.2718 17.0155H14.5109C15.7074 17.0146 16.6771 16.0449 16.678 14.8483V8.67958C16.6756 8.31013 16.5279 7.95649 16.2668 7.6951C16.0057 7.43371 15.6522 7.28557 15.2827 7.2827ZM15.428 8.67958V11.9093H12.8234V8.5327H15.2827C15.3214 8.53311 15.3584 8.54877 15.3856 8.57627C15.4128 8.60377 15.428 8.64089 15.428 8.67958ZM8.96711 11.9093V8.5327H11.5734V11.9093H8.96711ZM5.25773 8.5327H7.71711V11.9093H5.11086V8.67958C5.11086 8.59833 5.17648 8.5327 5.25773 8.5327ZM4.48586 17.3077C4.30446 17.3077 4.12713 17.2539 3.9763 17.1531C3.82547 17.0523 3.70791 16.9091 3.63849 16.7415C3.56907 16.5739 3.55091 16.3895 3.5863 16.2116C3.62169 16.0337 3.70904 15.8702 3.83731 15.742C3.96558 15.6137 4.12901 15.5263 4.30692 15.4909C4.48484 15.4556 4.66926 15.4737 4.83685 15.5431C5.00445 15.6126 5.14769 15.7301 5.24847 15.881C5.34925 16.0318 5.40305 16.2091 5.40305 16.3905C5.40263 16.6336 5.30587 16.8667 5.13395 17.0386C4.96204 17.2105 4.72899 17.3073 4.48586 17.3077ZM12.1984 17.3077C12.017 17.3077 11.8396 17.2539 11.6888 17.1531C11.538 17.0523 11.4204 16.9091 11.351 16.7415C11.2816 16.5739 11.2634 16.3895 11.2988 16.2116C11.3342 16.0337 11.4215 15.8702 11.5498 15.742C11.6781 15.6137 11.8415 15.5263 12.0194 15.4909C12.1973 15.4556 12.3818 15.4737 12.5494 15.5431C12.7169 15.6126 12.8602 15.7301 12.961 15.881C13.0618 16.0318 13.1155 16.2091 13.1155 16.3905C13.1155 16.511 13.0918 16.6302 13.0457 16.7415C12.9996 16.8528 12.9321 16.9539 12.8469 17.0391C12.7617 17.1242 12.6606 17.1918 12.5494 17.2379C12.4381 17.284 12.3188 17.3077 12.1984 17.3077ZM14.5109 15.7655H14.2796C13.9359 14.6199 12.7284 13.97 11.5827 14.3138C11.2396 14.4168 10.9274 14.6034 10.674 14.8567C10.4207 15.1101 10.2342 15.4223 10.1312 15.7655H6.56086C6.21711 14.6199 5.00961 13.97 3.86398 14.3138C3.52083 14.4168 3.2086 14.6034 2.95527 14.8567C2.70194 15.1101 2.51542 15.4223 2.41242 15.7655H1.40148C1.3628 15.7651 1.32584 15.7494 1.29864 15.7219C1.27143 15.6944 1.25617 15.6573 1.25617 15.6186V13.3061C1.25617 13.2675 1.27143 13.2303 1.29864 13.2028C1.32584 13.1753 1.3628 13.1597 1.40148 13.1593H15.428V14.8483C15.428 15.0916 15.3314 15.3249 15.1594 15.4969C14.9874 15.6689 14.7541 15.7655 14.5109 15.7655ZM0.0905468 2.95301C0.17377 2.80968 0.310516 2.70528 0.470708 2.66276C0.6309 2.62025 0.80142 2.6431 0.944766 2.72629L0.945234 2.72645L1.99055 3.3327L3.91711 2.3952L1.76242 1.1452C1.63011 1.05708 1.53634 0.921855 1.50021 0.767042C1.46408 0.61223 1.4883 0.449467 1.56795 0.311884C1.64759 0.1743 1.77667 0.0722362 1.92891 0.0264656C2.08115 -0.0193049 2.24511 -0.00534192 2.38742 0.0655128L5.26242 1.74208L7.30461 0.742075C7.37851 0.704773 7.45908 0.68251 7.54164 0.676579C7.62421 0.670647 7.70713 0.681164 7.7856 0.707521C7.86408 0.733877 7.93654 0.775548 7.99878 0.830118C8.06103 0.884688 8.11182 0.951071 8.14822 1.02542C8.18462 1.09977 8.2059 1.1806 8.21082 1.26323C8.21575 1.34587 8.20422 1.42866 8.17691 1.5068C8.1496 1.58494 8.10704 1.65689 8.05172 1.71847C7.99639 1.78004 7.9294 1.83002 7.85461 1.86551L2.22961 4.61551C2.13753 4.66057 2.03578 4.68228 1.93332 4.67874C1.83087 4.6752 1.73086 4.64651 1.64211 4.5952L0.307734 3.81395C0.236449 3.77195 0.174213 3.71622 0.124635 3.64998C0.0750567 3.58374 0.0391238 3.50831 0.0189202 3.42808C-0.00128345 3.34785 -0.00535557 3.2644 0.00693993 3.18258C0.0192354 3.10076 0.0476537 3.0222 0.0905468 2.95145V2.95301Z" fill="#272727"/>
</svg>
