<svg width="140" height="140" viewBox="0 0 140 140" fill="none" xmlns="http://www.w3.org/2000/svg">
<path d="M100 63.5499C99.2001 63.5499 98.4001 63.2999 97.7001 62.7499C80.8501 49.7499 59.1001 49.7499 42.3001 62.7499C40.6501 63.9999 38.3002 63.6999 37.0502 62.0999C35.8002 60.4499 36.1001 58.0999 37.7001 56.8499C57.3001 41.6999 82.6501 41.6999 102.3 56.8499C103.95 58.0999 104.25 60.4499 102.95 62.0999C102.25 63.0499 101.1 63.5499 100 63.5499Z" fill="#272727"/>
<path d="M91.9994 79C91.1994 79 90.3994 78.75 89.6994 78.2C77.6994 68.95 62.2494 68.95 50.2494 78.2C48.5994 79.45 46.2494 79.1499 44.9994 77.5499C43.7494 75.8999 44.0494 73.55 45.6494 72.3C60.3994 60.9 79.4994 60.9 94.2494 72.3C95.8994 73.55 96.1994 75.8999 94.8994 77.5499C94.2494 78.4999 93.1494 79 91.9994 79Z" fill="#272727"/>
<path d="M81.0003 94.45C80.2003 94.45 79.4003 94.2 78.7003 93.65C73.4003 89.55 66.5504 89.55 61.2504 93.65C59.6004 94.9 57.2503 94.6 56.0003 93C54.7503 91.35 55.0504 89 56.6504 87.75C64.6004 81.6 75.3004 81.6 83.2504 87.75C84.9004 89 85.2003 91.35 83.9003 93C83.2503 93.95 82.1503 94.45 81.0003 94.45Z" fill="#272727"/>
<path d="M85 123.75H55C27.85 123.75 16.25 112.15 16.25 85V55C16.25 27.85 27.85 16.25 55 16.25H85C112.15 16.25 123.75 27.85 123.75 55V85C123.75 112.15 112.15 123.75 85 123.75ZM55 23.75C31.95 23.75 23.75 31.95 23.75 55V85C23.75 108.05 31.95 116.25 55 116.25H85C108.05 116.25 116.25 108.05 116.25 85V55C116.25 31.95 108.05 23.75 85 23.75H55Z" fill="#272727"/>
<path d="M4.54776 135.437C5.94852 136.838 7.74455 137.5 9.52082 137.5C11.2971 137.5 13.0931 136.838 14.4939 135.437L135.452 14.4932C138.183 11.7632 138.183 7.27743 135.452 4.5474C132.722 1.81753 128.236 1.81753 125.506 4.5474L4.54776 125.492C1.81741 128.222 1.81741 132.707 4.54776 135.437Z" fill="#272727" stroke="white" stroke-width="5"/>
</svg>
