<svg width="34" height="34" viewBox="0 0 34 34" fill="none" xmlns="http://www.w3.org/2000/svg">
<rect width="34" height="34" rx="8" fill="#1C1C1C"/>
<path d="M20.3688 27.1501H20.2434C15.9602 27.1501 13.8958 25.4619 13.5389 21.6804C13.5003 21.2849 13.7897 20.9279 14.1948 20.8893C14.5807 20.8508 14.9473 21.1498 14.9859 21.5453C15.2656 24.5744 16.6934 25.7031 20.2531 25.7031H20.3785C24.3047 25.7031 25.6939 24.314 25.6939 20.3877V14.098C25.6939 10.1717 24.3047 8.78258 20.3785 8.78258H20.2531C16.6741 8.78258 15.2464 9.93055 14.9859 13.0175C14.9377 13.4131 14.6 13.7121 14.1948 13.6735C13.7897 13.6446 13.5003 13.2876 13.5292 12.8921C13.8572 9.05269 15.9313 7.33556 20.2434 7.33556H20.3688C25.1054 7.33556 27.1312 9.36139 27.1312 14.098V20.3877C27.1312 25.1243 25.1054 27.1501 20.3688 27.1501Z" fill="#F6F6F6"/>
<path d="M20.1372 17.9663H9.15906C8.76354 17.9663 8.43555 17.6383 8.43555 17.2428C8.43555 16.8473 8.76354 16.5193 9.15906 16.5193H20.1372C20.5327 16.5193 20.8607 16.8473 20.8607 17.2428C20.8607 17.6383 20.5327 17.9663 20.1372 17.9663Z" fill="#F6F6F6"/>
<path d="M11.3103 21.198C11.127 21.198 10.9438 21.1305 10.7991 20.9858L7.56736 17.7541C7.2876 17.4744 7.2876 17.0113 7.56736 16.7316L10.7991 13.4999C11.0788 13.2201 11.5419 13.2201 11.8216 13.4999C12.1014 13.7796 12.1014 14.2427 11.8216 14.5224L9.10121 17.2428L11.8216 19.9632C12.1014 20.243 12.1014 20.7061 11.8216 20.9858C11.6866 21.1305 11.4936 21.198 11.3103 21.198Z" fill="#F6F6F6"/>
</svg>
