<svg width="43" height="43" viewBox="0 0 43 43" fill="none" xmlns="http://www.w3.org/2000/svg">
<rect width="43" height="43" rx="8" fill="#1C1C1C"/>
<path d="M25.7603 34.3369H25.6017C20.1847 34.3369 17.5738 32.2018 17.1224 27.4193C17.0736 26.919 17.4396 26.4676 17.952 26.4188C18.44 26.37 18.9036 26.7482 18.9524 27.2485C19.3063 31.0794 21.1119 32.5068 25.6139 32.5068H25.7725C30.738 32.5068 32.4949 30.75 32.4949 25.7844V17.8297C32.4949 12.8642 30.738 11.1073 25.7725 11.1073H25.6139C21.0875 11.1073 19.2819 12.5592 18.9524 16.4633C18.8914 16.9635 18.4644 17.3417 17.952 17.2929C17.4396 17.2563 17.0736 16.8049 17.1102 16.3047C17.525 11.4489 20.1481 9.27727 25.6017 9.27727H25.7603C31.7507 9.27727 34.3127 11.8394 34.3127 17.8297V25.7844C34.3127 31.7748 31.7507 34.3369 25.7603 34.3369Z" fill="#F6F6F6"/>
<path d="M25.4671 22.7222H11.583C11.0828 22.7222 10.668 22.3074 10.668 21.8072C10.668 21.307 11.0828 20.8922 11.583 20.8922H25.4671C25.9673 20.8922 26.3821 21.307 26.3821 21.8072C26.3821 22.3074 25.9673 22.7222 25.4671 22.7222Z" fill="#F6F6F6"/>
<path d="M14.3045 26.8093C14.0727 26.8093 13.8409 26.7239 13.6579 26.5409L9.57078 22.4537C9.21697 22.0999 9.21697 21.5143 9.57078 21.1605L13.6579 17.0734C14.0117 16.7196 14.5973 16.7196 14.9512 17.0734C15.305 17.4272 15.305 18.0128 14.9512 18.3666L11.5106 21.8071L14.9512 25.2476C15.305 25.6015 15.305 26.1871 14.9512 26.5409C14.7804 26.7239 14.5363 26.8093 14.3045 26.8093Z" fill="#F6F6F6"/>
</svg>
