<svg width="40" height="40" viewBox="0 0 40 40" fill="none" xmlns="http://www.w3.org/2000/svg">
<rect width="40" height="40" rx="8" fill="#1C1C1C"/>
<path d="M23.9631 31.9413H23.8156C18.7765 31.9413 16.3478 29.9552 15.9279 25.5063C15.8825 25.041 16.223 24.6211 16.6996 24.5757C17.1536 24.5303 17.5849 24.8821 17.6303 25.3474C17.9594 28.9111 19.6391 30.2389 23.8269 30.2389H23.9745C28.5936 30.2389 30.2279 28.6046 30.2279 23.9855V16.5858C30.2279 11.9667 28.5936 10.3324 23.9745 10.3324H23.8269C19.6164 10.3324 17.9367 11.683 17.6303 15.3147C17.5735 15.78 17.1763 16.1319 16.6996 16.0865C16.223 16.0524 15.8825 15.6325 15.9165 15.1672C16.3024 10.6502 18.7425 8.63004 23.8156 8.63004H23.9631C29.5356 8.63004 31.9189 11.0134 31.9189 16.5858V23.9855C31.9189 29.558 29.5356 31.9413 23.9631 31.9413Z" fill="#F6F6F6"/>
<path d="M23.6904 21.1369H10.775C10.3097 21.1369 9.92383 20.751 9.92383 20.2857C9.92383 19.8204 10.3097 19.4345 10.775 19.4345H23.6904C24.1557 19.4345 24.5416 19.8204 24.5416 20.2857C24.5416 20.751 24.1557 21.1369 23.6904 21.1369Z" fill="#F6F6F6"/>
<path d="M13.3065 24.9389C13.0908 24.9389 12.8752 24.8594 12.705 24.6892L8.90297 20.8872C8.57385 20.5581 8.57385 20.0133 8.90297 19.6842L12.705 15.8822C13.0341 15.5531 13.5788 15.5531 13.908 15.8822C14.2371 16.2113 14.2371 16.7561 13.908 17.0852L10.7075 20.2857L13.908 23.4862C14.2371 23.8153 14.2371 24.3601 13.908 24.6892C13.7491 24.8594 13.5221 24.9389 13.3065 24.9389Z" fill="#F6F6F6"/>
</svg>
