<svg width="22" height="22" viewBox="0 0 22 22" fill="none" xmlns="http://www.w3.org/2000/svg">
<path d="M20.625 11C20.625 16.3158 16.3158 20.625 11 20.625C5.68425 20.625 1.375 16.3158 1.375 11C1.375 5.68425 5.68425 1.375 11 1.375C16.3158 1.375 20.625 5.68425 20.625 11ZM22 11C22 4.92525 17.0748 0 11 0C4.92525 0 0 4.92525 0 11C0 17.0748 4.92525 22 11 22C17.0748 22 22 17.0748 22 11ZM13.0625 9.625C13.0625 9.98967 12.9176 10.3394 12.6598 10.5973C12.4019 10.8551 12.0522 11 11.6875 11H9.625L10.3125 11.6875V7.5625L9.625 8.25H11.6875C12.0522 8.25 12.4019 8.39487 12.6598 8.65273C12.9176 8.91059 13.0625 9.26033 13.0625 9.625ZM14.4375 9.625C14.4375 8.89565 14.1478 8.19618 13.632 7.68046C13.1163 7.16473 12.4168 6.875 11.6875 6.875H9.625C9.44266 6.875 9.2678 6.94743 9.13886 7.07636C9.00993 7.2053 8.9375 7.38016 8.9375 7.5625V11.6875C8.9375 12.067 9.2455 12.375 9.625 12.375H11.6875C12.4168 12.375 13.1163 12.0853 13.632 11.5695C14.1478 11.0538 14.4375 10.3543 14.4375 9.625ZM10.3125 15.8125V11.6875C10.3125 11.5052 10.2401 11.3303 10.1111 11.2014C9.9822 11.0724 9.80734 11 9.625 11C9.44266 11 9.2678 11.0724 9.13886 11.2014C9.00993 11.3303 8.9375 11.5052 8.9375 11.6875V15.8125C8.9375 15.9948 9.00993 16.1697 9.13886 16.2986C9.2678 16.4276 9.44266 16.5 9.625 16.5C9.80734 16.5 9.9822 16.4276 10.1111 16.2986C10.2401 16.1697 10.3125 15.9948 10.3125 15.8125Z" fill="#272727"/>
</svg>
