<svg width="26" height="26" viewBox="0 0 26 26" fill="none" xmlns="http://www.w3.org/2000/svg">
<path d="M8.66663 6.22917C8.22246 6.22917 7.85413 5.86084 7.85413 5.41667V2.16667C7.85413 1.72251 8.22246 1.35417 8.66663 1.35417C9.11079 1.35417 9.47913 1.72251 9.47913 2.16667V5.41667C9.47913 5.86084 9.11079 6.22917 8.66663 6.22917Z" fill="#292D32"/>
<path d="M17.3334 6.22917C16.8892 6.22917 16.5209 5.86084 16.5209 5.41667V2.16667C16.5209 1.72251 16.8892 1.35417 17.3334 1.35417C17.7775 1.35417 18.1459 1.72251 18.1459 2.16667V5.41667C18.1459 5.86084 17.7775 6.22917 17.3334 6.22917Z" fill="#292D32"/>
<path d="M22.2083 10.66H3.79163C3.34746 10.66 2.97913 10.2916 2.97913 9.84746C2.97913 9.40329 3.34746 9.03496 3.79163 9.03496H22.2083C22.6525 9.03496 23.0208 9.40329 23.0208 9.84746C23.0208 10.2916 22.6525 10.66 22.2083 10.66Z" fill="#292D32"/>
<path d="M17.3333 24.6458H8.66667C4.7125 24.6458 2.4375 22.3708 2.4375 18.4167V9.20834C2.4375 5.25417 4.7125 2.97917 8.66667 2.97917H17.3333C21.2875 2.97917 23.5625 5.25417 23.5625 9.20834V18.4167C23.5625 22.3708 21.2875 24.6458 17.3333 24.6458ZM8.66667 4.60417C5.56833 4.60417 4.0625 6.11001 4.0625 9.20834V18.4167C4.0625 21.515 5.56833 23.0208 8.66667 23.0208H17.3333C20.4317 23.0208 21.9375 21.515 21.9375 18.4167V9.20834C21.9375 6.11001 20.4317 4.60417 17.3333 4.60417H8.66667Z" fill="#292D32"/>
<path d="M9.20833 15.7084C9.0675 15.7084 8.92666 15.6759 8.79666 15.6217C8.66666 15.5675 8.54751 15.4917 8.43918 15.3942C8.34168 15.2858 8.26582 15.1667 8.21165 15.0367C8.15749 14.9067 8.125 14.7659 8.125 14.625C8.125 14.3434 8.24418 14.0617 8.43918 13.8559C8.54751 13.7584 8.66666 13.6825 8.79666 13.6283C8.99166 13.5417 9.20835 13.52 9.42501 13.5633C9.49001 13.5742 9.55501 13.5958 9.62001 13.6283C9.68501 13.65 9.75 13.6825 9.815 13.7259C9.86916 13.7692 9.92332 13.8125 9.97749 13.8559C10.0208 13.91 10.075 13.9642 10.1075 14.0184C10.1508 14.0834 10.1833 14.1483 10.205 14.2133C10.2375 14.2783 10.2592 14.3433 10.27 14.4083C10.2808 14.4842 10.2917 14.5492 10.2917 14.625C10.2917 14.9067 10.1725 15.1883 9.97749 15.3942C9.77166 15.5892 9.49 15.7084 9.20833 15.7084Z" fill="#292D32"/>
<path d="M13 15.7083C12.7183 15.7083 12.4366 15.5892 12.2308 15.3942C12.1875 15.34 12.1441 15.2858 12.1008 15.2317C12.0575 15.1667 12.0249 15.1017 12.0033 15.0367C11.9708 14.9717 11.9491 14.9067 11.9383 14.8417C11.9274 14.7658 11.9166 14.7008 11.9166 14.625C11.9166 14.4842 11.9491 14.3433 12.0033 14.2133C12.0574 14.0833 12.1333 13.9642 12.2308 13.8558C12.5341 13.5525 13.0216 13.455 13.4116 13.6283C13.5525 13.6825 13.6608 13.7583 13.7691 13.8558C13.9641 14.0617 14.0833 14.3433 14.0833 14.625C14.0833 14.7008 14.0725 14.7658 14.0616 14.8417C14.0508 14.9067 14.0291 14.9717 13.9966 15.0367C13.975 15.1017 13.9424 15.1667 13.8991 15.2317C13.8558 15.2858 13.8124 15.34 13.7691 15.3942C13.6608 15.4917 13.5525 15.5675 13.4116 15.6217C13.2816 15.6758 13.1408 15.7083 13 15.7083Z" fill="#292D32"/>
<path d="M16.7917 15.7083C16.51 15.7083 16.2284 15.5892 16.0225 15.3942C15.9792 15.34 15.9359 15.2858 15.8926 15.2317C15.8492 15.1667 15.8167 15.1017 15.795 15.0367C15.7625 14.9717 15.7409 14.9067 15.73 14.8417C15.7192 14.7658 15.7084 14.7008 15.7084 14.625C15.7084 14.4842 15.7409 14.3433 15.795 14.2133C15.8492 14.0833 15.925 13.9642 16.0225 13.8558C16.3259 13.5525 16.8134 13.455 17.2034 13.6283C17.3442 13.6825 17.4525 13.7583 17.5609 13.8558C17.7559 14.0617 17.875 14.3433 17.875 14.625C17.875 14.7008 17.8642 14.7658 17.8534 14.8417C17.8426 14.9067 17.8209 14.9717 17.7884 15.0367C17.7667 15.1017 17.7342 15.1667 17.6909 15.2317C17.6475 15.2858 17.6042 15.34 17.5609 15.3942C17.4525 15.4917 17.3442 15.5675 17.2034 15.6217C17.0734 15.6758 16.9325 15.7083 16.7917 15.7083Z" fill="#292D32"/>
<path d="M9.20833 19.5C9.0675 19.5 8.92666 19.4675 8.79666 19.4133C8.66666 19.3592 8.54751 19.2833 8.43918 19.1858C8.34168 19.0775 8.26582 18.9692 8.21165 18.8283C8.15749 18.6983 8.125 18.5575 8.125 18.4167C8.125 18.135 8.24418 17.8533 8.43918 17.6475C8.54751 17.55 8.66666 17.4741 8.79666 17.42C9.19749 17.2466 9.67416 17.3442 9.97749 17.6475C10.0208 17.7017 10.075 17.7558 10.1075 17.81C10.1508 17.875 10.1833 17.94 10.205 18.005C10.2375 18.07 10.2592 18.135 10.27 18.2108C10.2808 18.2758 10.2917 18.3517 10.2917 18.4167C10.2917 18.6983 10.1725 18.98 9.97749 19.1858C9.77166 19.3808 9.49 19.5 9.20833 19.5Z" fill="#292D32"/>
</svg>
