<svg width="106" height="38" viewBox="0 0 106 38" fill="none" xmlns="http://www.w3.org/2000/svg">
<g clip-path="url(#clip0_32_461)">
<path d="M86.0764 21.2052C86.753 21.5714 87.3865 21.9295 88.0682 22.4721C87.6642 22.5466 87.4614 22.3847 87.2483 22.2903C84.7257 21.1724 82.1625 20.196 79.4196 19.7625C77.93 19.5271 76.4635 19.6502 74.9929 19.8644C71.3711 20.3919 67.7565 20.972 64.1277 21.4448C59.1079 22.0989 54.0627 22.4362 48.9992 22.2402C42.1632 21.9756 35.9228 19.8612 30.2895 15.9235C29.5345 15.3958 28.7799 14.8635 28.1069 14.2363C27.6965 13.8538 27.3746 13.8769 26.8994 14.1088C24.0078 15.5199 21.0326 16.7155 17.9494 17.6407C15.8651 18.2662 13.7355 18.3858 11.5887 18.3973C9.75449 18.407 7.92965 18.2447 6.10873 18.0346C5.96993 18.0186 5.80951 18.0518 5.69995 17.7693C6.45664 17.7279 7.17424 17.6866 7.89209 17.6497C10.5642 17.5126 13.2267 17.2859 15.8642 16.8089C18.378 16.3542 20.6039 15.1836 22.8115 13.9665C24.2757 13.1592 25.745 12.3605 27.1938 11.5256C27.7998 11.1764 28.2616 11.2569 28.7655 11.7328C30.1602 13.0505 31.64 14.2652 33.2573 15.2994C36.3663 17.2881 39.7739 18.4841 43.3651 19.192C45.418 19.5966 47.498 19.734 49.5801 19.8781C51.7786 20.0303 53.9787 20.0138 56.175 19.9551C58.9009 19.8823 61.6207 19.6487 64.3331 19.3466C67.6255 18.9799 70.9084 18.4955 74.2192 18.3403C78.4188 18.1433 82.3592 19.135 86.0764 21.2052Z" fill="#02903E"/>
<path d="M85.619 3.98184C86.78 2.50474 88.069 1.22799 89.6184 0.229239C90.0724 -0.063534 90.4633 -0.0786612 90.9385 0.199937C94.5681 2.32809 97.2748 5.24515 98.7146 9.29626C99.322 11.0056 99.9688 12.6988 100.323 14.4861C100.501 15.3857 100.492 15.3955 101.438 15.3961C102.428 15.3966 103.417 15.3819 104.406 15.3698C105.152 15.3607 105.715 15.7931 105.865 16.5371C105.934 16.8799 105.976 17.2346 105.977 17.5841C105.99 22.9626 105.994 28.341 105.998 33.7195C105.998 33.9337 106.031 34.1595 105.842 34.4466C105.597 33.7488 105.597 33.0924 105.518 32.4582C105.149 29.5173 104.803 26.5735 104.454 23.6302C104.213 21.6072 103.97 19.5845 103.752 17.559C103.704 17.12 103.502 17.0042 103.107 17.0089C101.897 17.0235 100.687 17.0042 99.4775 17.0245C99.0568 17.0316 98.8696 16.8863 98.7641 16.4571C98.0628 13.6094 97.2006 10.812 95.7992 8.22714C94.7631 6.31619 93.4772 4.58432 91.8641 3.1158C90.5879 1.95373 90.0933 1.94781 88.7709 3.10806C85.8502 5.67104 83.7575 8.78872 82.582 12.5255C82.3714 13.195 82.1438 13.8591 81.9207 14.5245C81.911 14.5531 81.867 14.5699 81.8122 14.6134C81.5248 14.3789 81.5557 14.0315 81.5293 13.7226C81.4166 12.4059 81.635 11.1348 82.1113 9.91026C82.9515 7.75132 84.1809 5.82582 85.619 3.98184Z" fill="#D96624"/>
<path d="M6.31301 33.3685C8.05533 34.0033 9.75164 33.355 10.6144 31.7489C11.3825 30.3189 11.5272 28.764 11.4899 27.1743C11.4686 26.2654 11.3814 25.3629 11.1939 24.4745C11.0971 24.0161 11.3356 23.8818 11.6965 23.9108C12.5071 23.9758 13.2807 24.1943 13.9948 24.601C14.2389 24.7401 14.3763 24.9377 14.3431 25.2365C14.0917 27.5041 13.8102 29.767 12.8532 31.8696C12.1373 33.4425 11.1632 34.812 9.48792 35.4295C7.34085 36.2208 5.35612 35.8005 3.6432 34.2974C1.67186 32.5674 0.734355 30.2596 0.232721 27.7292C0.00384472 26.5746 0.00168083 25.412 1.97613e-06 24.2431C-0.000802523 23.6831 0.244031 23.3844 0.735192 23.2197C1.70828 22.8935 2.70861 22.8139 3.72015 22.9109C4.52623 22.9883 4.6758 23.188 4.54637 23.9866C4.26084 25.7484 4.16288 27.5198 4.24637 29.3014C4.28744 30.1771 4.46126 31.0286 4.81577 31.8319C5.11668 32.5134 5.58166 33.0476 6.31301 33.3685Z" fill="#14285A"/>
<path d="M68.7603 28.607C69.8904 28.9461 71.03 29.057 72.1072 29.4306C72.7168 29.642 73.3108 29.8832 73.8224 30.2899C74.6293 30.9314 74.9709 31.7641 74.7639 32.7909C74.41 34.5457 73.3667 35.7974 71.8535 36.6373C69.7124 37.8258 67.4602 38.1132 65.1201 37.2814C64.4722 37.0508 63.908 36.6776 63.4253 36.1766C63.179 35.9213 63.1228 35.6541 63.2397 35.3161C63.3693 34.9406 63.5627 34.611 63.8178 34.3148C64.3 33.7544 64.5593 33.6874 65.2668 33.9272C66.7755 34.4384 68.3057 34.7711 69.9032 34.4398C71.0612 34.1997 72.0163 33.6238 72.7046 32.6324C73.0749 32.0987 73.0178 31.8578 72.42 31.6309C71.3524 31.2256 70.2293 31.0457 69.1131 30.8399C68.1432 30.6615 67.1506 30.5914 66.2286 30.1849C64.4449 29.3985 64.1047 27.8355 65.523 26.4955C67.0487 25.0537 68.9181 24.5164 70.9949 24.7091C71.5155 24.7573 71.7856 25.0142 71.8157 25.5559C71.829 25.7977 71.8274 26.0323 71.8082 26.2732C71.7653 26.8113 71.5249 27.0591 70.9627 27.0474C69.9572 27.0264 68.9464 26.9977 67.9566 27.251C67.6867 27.32 67.3659 27.3707 67.3228 27.6924C67.2772 28.0348 67.6118 28.131 67.8514 28.2461C68.1315 28.3809 68.4292 28.478 68.7603 28.607Z" fill="#14285A"/>
<path d="M21.107 25.839C22.5399 25.9044 23.8761 26.1423 25.153 26.7306C25.9217 27.0847 26.1072 27.8787 25.3931 28.4578C24.0688 29.5319 22.6048 30.3665 21.1795 31.2715C20.73 31.5566 20.2867 31.8525 19.8483 32.155C19.706 32.2533 19.5149 32.3284 19.5191 32.5576C19.6286 32.7062 19.7879 32.6645 19.9266 32.6648C22.3701 32.6704 24.7642 32.4523 26.8833 31.0393C27.2588 30.7887 27.4929 30.8923 27.6275 31.3069C27.7884 31.8026 27.9063 32.3042 27.876 32.8326C27.824 33.7432 27.499 34.1578 26.6218 34.4142C24.1373 35.1402 21.5937 35.1255 19.0466 35.0053C17.8406 34.9485 16.6368 34.8331 15.4343 34.7196C15.047 34.6833 14.5591 34.7323 14.3794 34.2799C14.1886 33.7995 14.5712 33.4783 14.8727 33.194C15.6625 32.4492 16.6722 32.0644 17.6078 31.5645C19.2096 30.7082 20.8717 29.9609 22.3155 28.8277C22.4415 28.7289 22.5565 28.6154 22.7999 28.3995C22.0943 28.3995 21.5354 28.3711 20.9803 28.4054C19.8475 28.4755 18.7167 28.578 17.5853 28.6703C17.404 28.6852 17.2096 28.7525 17.0704 28.5839C16.9078 28.3871 17.0424 28.1985 17.1223 28.0161C17.8903 26.2636 18.9958 25.6505 21.107 25.839Z" fill="#14285A"/>
<path d="M62.4541 16.2614C65.7782 15.0774 69.1332 14.3013 72.6381 14.2948C75.3087 14.2899 77.8625 14.9159 80.3959 15.6788C82.6759 16.3652 84.913 17.2228 87.2792 17.5758C89.2225 17.8657 91.184 17.898 93.1451 17.8202C94.133 17.781 95.1196 17.7124 96.1067 17.6607C96.2633 17.6525 96.4305 17.6185 96.566 17.7333C96.5424 17.9761 96.3512 17.9965 96.2144 18.0603C93.871 19.1531 91.404 19.7532 88.8278 19.7831C86.7436 19.8072 84.7255 19.3008 82.7212 18.7709C80.0829 18.0733 77.4919 17.195 74.8116 16.6587C73.1957 16.3354 71.562 16.4497 69.9342 16.4632C67.297 16.485 64.6673 16.6676 62.0412 16.908C61.7716 16.9327 61.4981 16.9114 61.2015 16.8526C61.549 16.543 61.9914 16.4297 62.4541 16.2614Z" fill="#14285A"/>
<path d="M36.1741 27.2087C36.55 27.8399 36.1363 28.254 35.855 28.6979C35.6917 28.9557 35.3748 29.0973 35.2733 29.4697C35.8336 29.6791 36.3806 29.8731 36.9192 30.0881C37.6376 30.3747 38.3384 30.6973 38.8862 31.2746C39.5047 31.9262 39.5058 32.5759 38.8764 33.225C38.3356 33.7831 37.6478 34.0922 36.9317 34.3368C34.7171 35.0937 32.4555 35.2288 30.1552 34.8435C29.7374 34.7734 29.4463 34.6312 29.394 34.1347C29.1359 31.6872 28.8518 29.2428 28.5869 26.7962C28.5054 26.0437 28.708 25.7547 29.4458 25.7951C31.4762 25.906 33.5016 26.0927 35.4505 26.7467C35.7131 26.8348 35.958 26.9617 36.1741 27.2087ZM36.2014 32.9668C36.5681 32.7425 36.4376 32.5184 36.1889 32.3146C35.7429 31.9496 35.2332 31.6945 34.6918 31.5141C33.8408 31.2301 32.9805 30.9745 32.1306 30.688C31.7934 30.5742 31.3435 30.5185 31.2995 30.0724C31.2578 29.6473 31.6462 29.4432 31.9545 29.2549C32.502 28.9203 33.0726 28.625 33.6274 28.3018C33.7812 28.212 33.9723 28.1123 33.9543 27.8945C33.9362 27.6758 33.7278 27.614 33.5634 27.5483C32.6867 27.1976 31.7742 27.2168 30.8563 27.3005C30.3711 27.3448 30.266 27.6201 30.345 28.0692C30.6007 29.5238 30.8524 30.9799 31.0683 32.4407C31.1245 32.821 31.2942 32.9992 31.6317 33.0811C33.1363 33.4459 34.6345 33.4932 36.2014 32.9668Z" fill="#14285A"/>
<path d="M95.1424 27.0548C95.9125 27.6487 96.4472 28.404 97.0122 29.1322C97.6443 29.9468 98.2147 30.8205 99.0838 31.4142C99.6589 31.8066 99.8253 31.7424 100.103 31.1093C100.852 29.3965 101.309 27.6173 101.345 25.7365C101.348 25.6082 101.374 25.4782 101.404 25.3532C101.48 25.0494 101.611 24.7699 101.968 24.7699C102.344 24.7698 102.446 25.0787 102.489 25.3787C102.682 26.7059 102.633 28.0412 102.552 29.3718C102.496 30.2939 102.381 31.2146 102.14 32.1123C101.976 32.7245 101.742 33.3066 101.398 33.838C100.627 35.0307 99.4249 35.3741 98.1437 34.7689C97.3252 34.3821 96.7084 33.7463 96.1584 33.0476C95.7483 32.5269 95.3886 31.9653 95.006 31.4226C94.8922 31.2613 94.8216 31.0592 94.5626 30.9506C94.2473 31.5428 94.254 32.197 94.1447 32.8148C94.0612 33.2855 94.0367 33.7707 94.0273 34.2504C94.0189 34.6802 93.8832 34.9721 93.4316 35.0346C92.9653 35.0991 92.5366 34.8331 92.4075 34.3892C92.2383 33.8085 92.2848 33.2081 92.324 32.6206C92.4178 31.2188 92.5015 29.8123 92.8485 28.4426C92.9389 28.0857 93.0488 27.7285 93.1968 27.3927C93.549 26.5943 93.9566 26.4496 94.7259 26.8155C94.858 26.8784 94.9821 26.9588 95.1424 27.0548Z" fill="#14285A"/>
<path d="M50.9943 28.0328C50.9233 28.4195 50.8585 28.7598 50.8001 29.0663C50.9217 29.197 51.0107 29.1474 51.0892 29.1091C52.5798 28.3798 54.0118 27.561 55.1839 26.3476C55.3506 26.1752 55.5136 25.9995 55.7779 25.9811C56.0879 25.9594 56.3858 26.009 56.56 26.2824C56.7522 26.5848 56.5155 26.8031 56.333 27.0091C55.2627 28.2168 54.014 29.2186 52.7381 30.1886C52.0215 30.7336 52.0167 30.8872 52.729 31.4671C54.1006 32.5843 55.7084 33.1031 57.4275 33.3184C57.7135 33.3544 57.9736 33.3719 58.0829 33.704C58.1864 34.0184 58.0354 34.251 57.8484 34.4576C57.3557 35.0019 56.7161 35.1117 56.0342 35.0067C54.6573 34.7945 53.4954 34.0798 52.3528 33.3361C51.8913 33.0355 51.4578 32.691 51.0099 32.3687C50.8666 32.2657 50.7458 32.1117 50.4707 32.1213C50.4031 32.8275 50.4159 33.5214 50.4932 34.2152C50.5606 34.821 50.3831 34.9994 49.6488 35.0419C49.0796 35.0751 48.8156 34.8747 48.8481 34.3455C49.012 31.6782 48.9466 29.0086 48.9472 26.34C48.9475 25.8958 49.1686 25.7516 49.564 25.7599C50.013 25.7694 50.4253 25.9094 50.831 26.0905C51.164 26.2392 51.3073 26.4702 51.2255 26.8414C51.142 27.2211 51.075 27.6046 50.9943 28.0328Z" fill="#14285A"/>
<path d="M46.5526 34.9456C43.8597 35.3166 41.8797 34.4398 40.6594 32.2752C39.0925 29.4956 39.7363 25.0739 44.2403 23.8442C44.5608 23.7567 44.7815 23.8709 44.9648 24.098C45.5332 24.8029 45.8601 25.6232 46.0348 26.5067C46.1166 26.9217 45.9494 27.1785 45.514 27.2549C44.7876 27.3825 44.0968 27.6174 43.4491 27.9845C42.1209 28.737 41.55 29.96 41.9824 31.1589C42.44 32.4281 43.8328 33.1436 45.2658 32.8461C45.7366 32.7484 46.1784 32.5711 46.5979 32.3386C46.9237 32.1581 47.1124 32.2606 47.212 32.6057C47.3739 33.1675 47.3886 33.7378 47.3194 34.3137C47.2676 34.7444 46.9802 34.8972 46.5526 34.9456Z" fill="#14285A"/>
<path d="M90.3877 30.6733C90.6879 31.6911 90.9728 32.6676 91.2635 33.6421C91.3617 33.9714 91.409 34.2735 90.9828 34.3962C90.5735 34.5138 90.2219 34.4967 90.0435 34.0117C89.6159 32.8492 89.2233 31.672 88.6641 30.563C88.283 29.8066 87.8451 29.0934 87.2616 28.5059C86.9562 28.6323 86.8891 28.8592 86.7873 29.0475C85.8286 30.8186 84.8704 32.5896 84.0694 34.4423C83.7892 35.0906 83.402 35.1886 82.569 34.8572C81.8707 34.5794 81.6887 34.2315 81.9049 33.594C82.6015 31.5394 83.4128 29.5358 84.5073 27.6609C84.7207 27.2951 84.955 26.9368 85.2179 26.606C85.9627 25.6685 86.6857 25.5445 87.7246 26.149C88.6661 26.6969 89.163 27.612 89.5948 28.5566C89.9008 29.2265 90.1178 29.9381 90.3877 30.6733Z" fill="#14285A"/>
<path d="M35.9209 7.98386C39.2587 7.08745 41.9051 8.31373 44.1311 10.6634C45.9578 12.5916 46.1915 14.9167 45.449 17.3979C45.4192 17.4977 45.3989 17.6198 45.2754 17.6668C45.0981 17.6268 45.1221 17.4773 45.1268 17.3569C45.1835 15.9033 44.5556 14.7094 43.6194 13.7071C41.7765 11.7342 39.5625 10.3526 36.8886 9.87004C35.2777 9.5793 33.7091 9.75725 32.2813 10.6665C32.1812 10.7303 32.0891 10.8525 31.8512 10.736C32.9621 9.42921 34.2825 8.51383 35.9209 7.98386Z" fill="#D5271C"/>
<path d="M72.9249 27.8624C72.9675 27.6365 72.9958 27.4527 73.0476 27.2758C73.3147 26.3619 73.5133 26.201 74.4364 26.2152C76.7832 26.2513 79.1252 26.2066 81.4489 25.8339C81.7991 25.7777 82.0125 25.9046 82.1747 26.1874C82.3233 26.4467 82.4001 26.7306 82.4632 27.0222C82.5709 27.5199 82.4101 27.7817 81.8876 27.8656C81.0566 27.999 80.2367 28.2011 79.4068 28.3421C78.9783 28.415 78.8589 28.5923 78.8726 29.05C78.9224 30.7257 79.2827 32.354 79.5186 34.0013C79.6118 34.654 79.3492 34.9282 78.6122 35.0278C77.9472 35.1174 77.622 34.8882 77.5127 34.2647C77.4309 33.7995 77.5377 33.3412 77.5435 32.8801C77.56 31.6202 77.5433 30.3597 77.5511 29.0993C77.5533 28.717 77.3978 28.5822 77.0186 28.5946C75.8286 28.6343 74.6393 28.6433 73.4499 28.5279C73.0264 28.4871 72.8359 28.3435 72.9249 27.8624Z" fill="#14285A"/>
<path d="M62.3505 33.2075C62.5258 35.2516 62.4493 34.9859 60.7199 34.9501C60.6835 34.9496 60.6467 34.9437 60.6106 34.9389C59.4329 34.7784 59.3541 34.7261 59.4162 33.5436C59.5419 31.1575 59.7067 28.773 59.8638 26.3886C59.8953 25.9093 60.1674 25.7329 60.6189 25.9076C61.0966 26.0924 61.455 26.3877 61.5955 26.9425C62.1124 28.9824 62.2993 31.0595 62.3505 33.2075Z" fill="#14285A"/>
<path d="M45.7503 30.6792C45.0728 30.8737 44.4249 30.9942 43.7677 31.042C43.3652 31.071 42.9851 30.9891 42.8485 30.5205C42.713 30.0563 42.9011 29.752 43.3065 29.515C43.9475 29.1404 44.6054 28.8462 45.3502 28.7514C45.8023 28.6939 46.1999 28.6596 46.3515 29.2259C46.5683 30.036 46.4339 30.391 45.7503 30.6792Z" fill="#14285A"/>
<path d="M87.8186 31.9881C88.3316 32.1331 88.4671 32.5199 88.4894 32.9381C88.5127 33.3775 88.3105 33.7232 87.897 33.9137C87.5481 34.0745 87.2051 34.2481 86.8156 34.2952C86.1326 34.3782 85.8694 34.2487 85.6774 33.7187C85.4724 33.1532 85.6504 32.5497 86.1426 32.2648C86.6465 31.9729 87.1884 31.826 87.8186 31.9881Z" fill="#14285A"/>
</g>
<defs>
<clipPath id="clip0_32_461">
<rect width="106" height="38" fill="white"/>
</clipPath>
</defs>
</svg>
