<svg width="26" height="26" viewBox="0 0 26 26" fill="none" xmlns="http://www.w3.org/2000/svg">
<path d="M8.66663 6.22917C8.22246 6.22917 7.85413 5.86084 7.85413 5.41667V2.16667C7.85413 1.72251 8.22246 1.35417 8.66663 1.35417C9.11079 1.35417 9.47913 1.72251 9.47913 2.16667V5.41667C9.47913 5.86084 9.11079 6.22917 8.66663 6.22917Z" fill="#292D32"/>
<path d="M17.3334 6.22917C16.8892 6.22917 16.5209 5.86084 16.5209 5.41667V2.16667C16.5209 1.72251 16.8892 1.35417 17.3334 1.35417C17.7775 1.35417 18.1459 1.72251 18.1459 2.16667V5.41667C18.1459 5.86084 17.7775 6.22917 17.3334 6.22917Z" fill="#292D32"/>
<path d="M16.7917 15.7083C16.6509 15.7083 16.51 15.6758 16.38 15.6217C16.2392 15.5675 16.1309 15.4917 16.0225 15.3942C15.9792 15.34 15.9359 15.2858 15.8925 15.2317C15.8492 15.1667 15.8167 15.1017 15.795 15.0367C15.7625 14.9717 15.7409 14.9067 15.73 14.8417C15.7192 14.7658 15.7084 14.69 15.7084 14.625C15.7084 14.3433 15.8275 14.0617 16.0225 13.8558C16.1309 13.7583 16.2392 13.6825 16.38 13.6283C16.7809 13.455 17.2575 13.5525 17.5609 13.8558C17.7559 14.0617 17.875 14.3433 17.875 14.625C17.875 14.69 17.8642 14.7658 17.8534 14.8417C17.8425 14.9067 17.8209 14.9717 17.7884 15.0367C17.7667 15.1017 17.7342 15.1667 17.6909 15.2317C17.6584 15.2858 17.6042 15.34 17.5609 15.3942C17.355 15.5892 17.0734 15.7083 16.7917 15.7083Z" fill="#292D32"/>
<path d="M9.20833 19.5C9.0675 19.5 8.92667 19.4675 8.79667 19.4134C8.66667 19.3592 8.5475 19.2833 8.43917 19.1858C8.24417 18.98 8.125 18.6983 8.125 18.4167C8.125 18.2758 8.1575 18.135 8.21167 18.005C8.26584 17.8642 8.34167 17.745 8.43917 17.6475C8.84 17.2467 9.57667 17.2467 9.9775 17.6475C10.1725 17.8534 10.2917 18.135 10.2917 18.4167C10.2917 18.6983 10.1725 18.98 9.9775 19.1858C9.77167 19.3808 9.49 19.5 9.20833 19.5Z" fill="#292D32"/>
<path d="M13 19.5C12.7183 19.5 12.4366 19.3808 12.2308 19.1858C12.0358 18.98 11.9166 18.6983 11.9166 18.4167C11.9166 18.2758 11.9491 18.135 12.0033 18.005C12.0575 17.8642 12.1333 17.745 12.2308 17.6475C12.6316 17.2467 13.3683 17.2467 13.7691 17.6475C13.8666 17.745 13.9425 17.8642 13.9966 18.005C14.0508 18.135 14.0833 18.2758 14.0833 18.4167C14.0833 18.6983 13.9641 18.98 13.7691 19.1858C13.5633 19.3808 13.2816 19.5 13 19.5Z" fill="#292D32"/>
<path d="M16.7917 19.5C16.51 19.5 16.2284 19.3809 16.0225 19.1859C15.925 19.0884 15.8492 18.9692 15.795 18.8284C15.7409 18.6984 15.7084 18.5575 15.7084 18.4167C15.7084 18.2759 15.7409 18.135 15.795 18.005C15.8492 17.8642 15.925 17.7451 16.0225 17.6476C16.2717 17.3984 16.6509 17.2792 16.9975 17.355C17.0734 17.3659 17.1384 17.3875 17.2034 17.42C17.2684 17.4417 17.3334 17.4742 17.3984 17.5176C17.4525 17.5501 17.5067 17.6042 17.5609 17.6476C17.7559 17.8534 17.875 18.135 17.875 18.4167C17.875 18.6984 17.7559 18.98 17.5609 19.1859C17.355 19.3809 17.0734 19.5 16.7917 19.5Z" fill="#292D32"/>
<path d="M22.2083 10.66H3.79163C3.34746 10.66 2.97913 10.2916 2.97913 9.84746C2.97913 9.40329 3.34746 9.03496 3.79163 9.03496H22.2083C22.6525 9.03496 23.0208 9.40329 23.0208 9.84746C23.0208 10.2916 22.6525 10.66 22.2083 10.66Z" fill="#292D32"/>
<path d="M17.3333 24.6458H8.66667C4.7125 24.6458 2.4375 22.3708 2.4375 18.4167V9.20834C2.4375 5.25417 4.7125 2.97917 8.66667 2.97917H17.3333C21.2875 2.97917 23.5625 5.25417 23.5625 9.20834V18.4167C23.5625 22.3708 21.2875 24.6458 17.3333 24.6458ZM8.66667 4.60417C5.56833 4.60417 4.0625 6.11001 4.0625 9.20834V18.4167C4.0625 21.515 5.56833 23.0208 8.66667 23.0208H17.3333C20.4317 23.0208 21.9375 21.515 21.9375 18.4167V9.20834C21.9375 6.11001 20.4317 4.60417 17.3333 4.60417H8.66667Z" fill="#292D32"/>
</svg>
