<svg width="26" height="26" viewBox="0 0 26 26" fill="none" xmlns="http://www.w3.org/2000/svg">
<path d="M19.4998 8.56917C19.4673 8.56917 19.4457 8.56917 19.4132 8.56917H19.359C17.3115 8.50417 15.784 6.92249 15.784 4.97249C15.784 2.97916 17.409 1.36499 19.3915 1.36499C21.374 1.36499 22.999 2.98999 22.999 4.97249C22.9882 6.93333 21.4607 8.51499 19.5107 8.57999C19.5107 8.56916 19.5107 8.56917 19.4998 8.56917ZM19.3915 2.97916C18.2973 2.97916 17.409 3.8675 17.409 4.96166C17.409 6.03417 18.2432 6.90083 19.3157 6.94417C19.3265 6.93333 19.4132 6.93333 19.5107 6.94417C20.5615 6.89 21.374 6.02333 21.3848 4.96166C21.3848 3.8675 20.4965 2.97916 19.3915 2.97916Z" fill="#292D32"/>
<path d="M19.5108 16.5533C19.0883 16.5533 18.6658 16.5208 18.2433 16.445C17.7991 16.3691 17.5066 15.9466 17.5825 15.5025C17.6583 15.0583 18.0808 14.7658 18.525 14.8416C19.8575 15.0691 21.2658 14.82 22.2083 14.1916C22.7175 13.8558 22.9883 13.4333 22.9883 13.0108C22.9883 12.5883 22.7066 12.1766 22.2083 11.8408C21.2658 11.2125 19.8358 10.9633 18.4925 11.2016C18.0483 11.2883 17.6258 10.985 17.55 10.5408C17.4741 10.0966 17.7666 9.67413 18.2108 9.59829C19.9766 9.28413 21.8075 9.61995 23.1075 10.4866C24.0608 11.1258 24.6133 12.0358 24.6133 13.0108C24.6133 13.975 24.0717 14.8958 23.1075 15.5458C22.1216 16.1958 20.8433 16.5533 19.5108 16.5533Z" fill="#292D32"/>
<path d="M6.46746 8.56925C6.45663 8.56925 6.44579 8.56925 6.44579 8.56925C4.49579 8.50425 2.96829 6.92258 2.95746 4.97258C2.95746 2.97924 4.58246 1.35425 6.56496 1.35425C8.54746 1.35425 10.1725 2.97925 10.1725 4.96175C10.1725 6.92258 8.64496 8.50425 6.69496 8.56925L6.46746 7.75675L6.54329 8.56925C6.52163 8.56925 6.48913 8.56925 6.46746 8.56925ZM6.57579 6.94425C6.64079 6.94425 6.69496 6.94425 6.75996 6.95508C7.72413 6.91175 8.56913 6.04508 8.56913 4.97258C8.56913 3.87841 7.68079 2.99008 6.58663 2.99008C5.49246 2.99008 4.60413 3.87841 4.60413 4.97258C4.60413 6.03424 5.42746 6.89008 6.47829 6.95508C6.48913 6.94425 6.53246 6.94425 6.57579 6.94425Z" fill="#292D32"/>
<path d="M6.45669 16.5533C5.12419 16.5533 3.84585 16.1958 2.86002 15.5458C1.90669 14.9066 1.35419 13.9858 1.35419 13.0108C1.35419 12.0466 1.90669 11.1258 2.86002 10.4866C4.16002 9.61995 5.99085 9.28413 7.75669 9.59829C8.20085 9.67413 8.49335 10.0966 8.41752 10.5408C8.34169 10.985 7.91919 11.2883 7.47502 11.2016C6.13169 10.9633 4.71252 11.2125 3.75919 11.8408C3.25002 12.1766 2.97919 12.5883 2.97919 13.0108C2.97919 13.4333 3.26086 13.8558 3.75919 14.1916C4.70169 14.82 6.11002 15.0691 7.44252 14.8416C7.88669 14.7658 8.30919 15.0691 8.38502 15.5025C8.46086 15.9466 8.16836 16.3691 7.72419 16.445C7.30169 16.5208 6.87919 16.5533 6.45669 16.5533Z" fill="#292D32"/>
<path d="M12.9998 16.6617C12.9673 16.6617 12.9457 16.6617 12.9132 16.6617H12.859C10.8115 16.5967 9.284 15.015 9.284 13.065C9.284 11.0717 10.909 9.45752 12.8915 9.45752C14.874 9.45752 16.499 11.0825 16.499 13.065C16.4882 15.0259 14.9607 16.6075 13.0107 16.6725C13.0107 16.6617 13.0107 16.6617 12.9998 16.6617ZM12.8915 11.0717C11.7973 11.0717 10.909 11.96 10.909 13.0542C10.909 14.1267 11.7432 14.9934 12.8157 15.0367C12.8265 15.0259 12.9132 15.0259 13.0107 15.0367C14.0615 14.9825 14.874 14.1159 14.8848 13.0542C14.8848 11.9709 13.9965 11.0717 12.8915 11.0717Z" fill="#292D32"/>
<path d="M12.9997 24.6565C11.6997 24.6565 10.3997 24.3207 9.39225 23.6382C8.43891 22.999 7.88641 22.089 7.88641 21.114C7.88641 20.1499 8.42808 19.2182 9.39225 18.579C11.4181 17.2357 14.5923 17.2357 16.6073 18.579C17.5606 19.2182 18.1131 20.1282 18.1131 21.1032C18.1131 22.0674 17.5714 22.999 16.6073 23.6382C15.5998 24.3099 14.2997 24.6565 12.9997 24.6565ZM10.2914 19.944C9.78225 20.2799 9.51141 20.7024 9.51141 21.1249C9.51141 21.5474 9.79308 21.959 10.2914 22.2949C11.7539 23.2807 14.2348 23.2807 15.6973 22.2949C16.2064 21.959 16.4772 21.5365 16.4772 21.114C16.4772 20.6915 16.1956 20.2799 15.6973 19.944C14.2456 18.9582 11.7647 18.969 10.2914 19.944Z" fill="#292D32"/>
</svg>
