<svg width="28" height="28" viewBox="0 0 28 28" fill="none" xmlns="http://www.w3.org/2000/svg">
<path d="M25.6665 8.45831H18.6665C18.1882 8.45831 17.7915 8.06165 17.7915 7.58331C17.7915 7.10498 18.1882 6.70831 18.6665 6.70831H25.6665C26.1448 6.70831 26.5415 7.10498 26.5415 7.58331C26.5415 8.06165 26.1448 8.45831 25.6665 8.45831Z" fill="black"/>
<path d="M7.00016 8.45831H2.3335C1.85516 8.45831 1.4585 8.06165 1.4585 7.58331C1.4585 7.10498 1.85516 6.70831 2.3335 6.70831H7.00016C7.4785 6.70831 7.87516 7.10498 7.87516 7.58331C7.87516 8.06165 7.4785 8.45831 7.00016 8.45831Z" fill="black"/>
<path d="M11.6668 12.5417C8.93683 12.5417 6.7085 10.3133 6.7085 7.58333C6.7085 4.85333 8.93683 2.625 11.6668 2.625C14.3968 2.625 16.6252 4.85333 16.6252 7.58333C16.6252 10.3133 14.3968 12.5417 11.6668 12.5417ZM11.6668 4.375C9.8935 4.375 8.4585 5.81 8.4585 7.58333C8.4585 9.35667 9.8935 10.7917 11.6668 10.7917C13.4402 10.7917 14.8752 9.35667 14.8752 7.58333C14.8752 5.81 13.4402 4.375 11.6668 4.375Z" fill="black"/>
<path d="M25.6667 21.2917H21C20.5217 21.2917 20.125 20.895 20.125 20.4167C20.125 19.9384 20.5217 19.5417 21 19.5417H25.6667C26.145 19.5417 26.5417 19.9384 26.5417 20.4167C26.5417 20.895 26.145 21.2917 25.6667 21.2917Z" fill="black"/>
<path d="M9.3335 21.2917H2.3335C1.85516 21.2917 1.4585 20.895 1.4585 20.4167C1.4585 19.9384 1.85516 19.5417 2.3335 19.5417H9.3335C9.81183 19.5417 10.2085 19.9384 10.2085 20.4167C10.2085 20.895 9.81183 21.2917 9.3335 21.2917Z" fill="black"/>
<path d="M16.3333 25.375C13.6033 25.375 11.375 23.1466 11.375 20.4166C11.375 17.6866 13.6033 15.4583 16.3333 15.4583C19.0633 15.4583 21.2917 17.6866 21.2917 20.4166C21.2917 23.1466 19.0633 25.375 16.3333 25.375ZM16.3333 17.2083C14.56 17.2083 13.125 18.6433 13.125 20.4166C13.125 22.19 14.56 23.625 16.3333 23.625C18.1067 23.625 19.5417 22.19 19.5417 20.4166C19.5417 18.6433 18.1067 17.2083 16.3333 17.2083Z" fill="black"/>
</svg>
