<svg width="33" height="33" viewBox="0 0 33 33" fill="none" xmlns="http://www.w3.org/2000/svg">
<rect width="33" height="33" rx="8" fill="#1C1C1C"/>
<path d="M16.6075 20.1184C14.6694 20.1184 13.0964 18.5455 13.0964 16.6074C13.0964 14.6693 14.6694 13.0963 16.6075 13.0963C18.5456 13.0963 20.1185 14.6693 20.1185 16.6074C20.1185 18.5455 18.5456 20.1184 16.6075 20.1184ZM16.6075 14.5008C15.4465 14.5008 14.5009 15.4464 14.5009 16.6074C14.5009 17.7684 15.4465 18.714 16.6075 18.714C17.7685 18.714 18.7141 17.7684 18.7141 16.6074C18.7141 15.4464 17.7685 14.5008 16.6075 14.5008Z" fill="white"/>
<path d="M19.6131 26.1482C19.4164 26.1482 19.2198 26.1201 19.0232 26.0733C18.4427 25.9141 17.9558 25.5489 17.6469 25.034L17.5345 24.8467C16.9821 23.8917 16.2237 23.8917 15.6713 24.8467L15.5683 25.0246C15.2594 25.5489 14.7725 25.9235 14.192 26.0733C13.6021 26.2324 12.9936 26.1482 12.4786 25.8392L10.8682 24.9123C10.2971 24.5846 9.88512 24.0509 9.70723 23.4049C9.5387 22.7588 9.62296 22.0941 9.95066 21.5229C10.2222 21.0454 10.2971 20.6148 10.1379 20.3432C9.97875 20.0717 9.57615 19.9125 9.02374 19.9125C7.65677 19.9125 6.5426 18.7984 6.5426 17.4314V15.7836C6.5426 14.4166 7.65677 13.3024 9.02374 13.3024C9.57615 13.3024 9.97875 13.1432 10.1379 12.8717C10.2971 12.6002 10.2315 12.1695 9.95066 11.692C9.62296 11.1209 9.5387 10.4468 9.70723 9.81009C9.87576 9.16406 10.2877 8.63038 10.8682 8.30268L12.488 7.37576C13.546 6.74846 14.941 7.1136 15.5777 8.19033L15.6901 8.37758C16.2425 9.33259 17.0008 9.33259 17.5532 8.37758L17.6562 8.19969C18.2929 7.1136 19.688 6.74846 20.7553 7.38513L22.3657 8.31204C22.9369 8.63974 23.3488 9.17342 23.5267 9.81945C23.6952 10.4655 23.611 11.1302 23.2833 11.7014C23.0118 12.1789 22.9369 12.6096 23.096 12.8811C23.2552 13.1526 23.6578 13.3118 24.2102 13.3118C25.5772 13.3118 26.6913 14.4259 26.6913 15.7929V17.4408C26.6913 18.8077 25.5772 19.9219 24.2102 19.9219C23.6578 19.9219 23.2552 20.0811 23.096 20.3526C22.9369 20.6241 23.0024 21.0548 23.2833 21.5323C23.611 22.1034 23.7046 22.7776 23.5267 23.4142C23.3582 24.0603 22.9462 24.5939 22.3657 24.9216L20.746 25.8486C20.3902 26.0452 20.0063 26.1482 19.6131 26.1482ZM16.6076 22.6839C17.4409 22.6839 18.218 23.2082 18.7517 24.1352L18.8547 24.3131C18.967 24.5097 19.1543 24.6501 19.379 24.7063C19.6037 24.7625 19.8284 24.7344 20.0157 24.622L21.6354 23.6857C21.8789 23.5453 22.0661 23.3112 22.141 23.0304C22.2159 22.7495 22.1785 22.4592 22.038 22.2158C21.5043 21.2982 21.4388 20.3526 21.8508 19.6317C22.2627 18.9107 23.1147 18.4988 24.1821 18.4988C24.7813 18.4988 25.2588 18.0213 25.2588 17.422V15.7742C25.2588 15.1843 24.7813 14.6975 24.1821 14.6975C23.1147 14.6975 22.2627 14.2855 21.8508 13.5646C21.4388 12.8436 21.5043 11.898 22.038 10.9804C22.1785 10.737 22.2159 10.4468 22.141 10.1659C22.0661 9.88499 21.8882 9.66028 21.6448 9.51048L20.025 8.58356C19.6224 8.34013 19.0887 8.48057 18.8453 8.89254L18.7423 9.07043C18.2086 9.99734 17.4315 10.5217 16.5982 10.5217C15.765 10.5217 14.9878 9.99734 14.4542 9.07043L14.3512 8.88317C14.1171 8.48993 13.5928 8.34949 13.1902 8.58356L11.5704 9.51984C11.327 9.66028 11.1397 9.89435 11.0648 10.1752C10.9899 10.4561 11.0274 10.7464 11.1678 10.9898C11.7015 11.9074 11.767 12.853 11.3551 13.5739C10.9431 14.2949 10.0911 14.7068 9.02374 14.7068C8.42452 14.7068 7.94702 15.1843 7.94702 15.7836V17.4314C7.94702 18.0213 8.42452 18.5081 9.02374 18.5081C10.0911 18.5081 10.9431 18.9201 11.3551 19.641C11.767 20.362 11.7015 21.3076 11.1678 22.2252C11.0274 22.4686 10.9899 22.7588 11.0648 23.0397C11.1397 23.3206 11.3176 23.5453 11.5611 23.6951L13.1808 24.622C13.3774 24.7437 13.6115 24.7718 13.8269 24.7157C14.0516 24.6595 14.2388 24.5097 14.3605 24.3131L14.4635 24.1352C14.9972 23.2176 15.7743 22.6839 16.6076 22.6839Z" fill="white"/>
</svg>
