<svg width="40" height="40" viewBox="0 0 40 40" fill="none" xmlns="http://www.w3.org/2000/svg">
<rect width="40" height="40" rx="8" fill="#1C1C1C"/>
<path d="M20.1302 24.386C17.781 24.386 15.8744 22.4794 15.8744 20.1302C15.8744 17.781 17.781 15.8744 20.1302 15.8744C22.4794 15.8744 24.386 17.781 24.386 20.1302C24.386 22.4794 22.4794 24.386 20.1302 24.386ZM20.1302 17.5767C18.7229 17.5767 17.5767 18.723 17.5767 20.1302C17.5767 21.5375 18.7229 22.6837 20.1302 22.6837C21.5375 22.6837 22.6837 21.5375 22.6837 20.1302C22.6837 18.723 21.5375 17.5767 20.1302 17.5767Z" fill="white"/>
<path d="M23.7733 31.6947C23.5349 31.6947 23.2966 31.6607 23.0583 31.6039C22.3547 31.411 21.7645 30.9684 21.39 30.3442L21.2538 30.1172C20.5843 28.9596 19.665 28.9596 18.9954 30.1172L18.8706 30.3328C18.4961 30.9684 17.9059 31.4223 17.2023 31.6039C16.4873 31.7968 15.7496 31.6947 15.1255 31.3202L13.1735 30.1967C12.4812 29.7994 11.9818 29.1526 11.7662 28.3695C11.5619 27.5864 11.6641 26.7807 12.0613 26.0884C12.3904 25.5096 12.4812 24.9875 12.2883 24.6584C12.0953 24.3293 11.6073 24.1364 10.9377 24.1364C9.28081 24.1364 7.9303 22.7859 7.9303 21.1289V19.1315C7.9303 17.4746 9.28081 16.1241 10.9377 16.1241C11.6073 16.1241 12.0953 15.9312 12.2883 15.6021C12.4812 15.2729 12.4017 14.7509 12.0613 14.1721C11.6641 13.4798 11.5619 12.6627 11.7662 11.891C11.9705 11.1079 12.4698 10.461 13.1735 10.0638L15.1368 8.94028C16.4192 8.17991 18.1102 8.62252 18.8819 9.92763L19.0181 10.1546C19.6877 11.3122 20.6069 11.3122 21.2765 10.1546L21.4014 9.93898C22.1731 8.62252 23.8641 8.17991 25.1578 8.95163L27.1098 10.0752C27.8021 10.4724 28.3015 11.1193 28.5171 11.9023C28.7214 12.6854 28.6192 13.4912 28.222 14.1834C27.8929 14.7622 27.8021 15.2843 27.995 15.6134C28.188 15.9425 28.676 16.1354 29.3456 16.1354C31.0025 16.1354 32.353 17.486 32.353 19.1429V21.1403C32.353 22.7972 31.0025 24.1477 29.3456 24.1477C28.676 24.1477 28.188 24.3407 27.995 24.6698C27.8021 24.9989 27.8816 25.5209 28.222 26.0997C28.6192 26.792 28.7327 27.6091 28.5171 28.3808C28.3128 29.1639 27.8135 29.8108 27.1098 30.208L25.1465 31.3315C24.7152 31.5699 24.2499 31.6947 23.7733 31.6947ZM20.1303 27.4956C21.1403 27.4956 22.0823 28.1312 22.7292 29.2547L22.854 29.4703C22.9902 29.7087 23.2172 29.8789 23.4896 29.947C23.7619 30.0151 24.0343 29.981 24.2613 29.8448L26.2246 28.71C26.5197 28.5397 26.7467 28.256 26.8375 27.9155C26.9283 27.5751 26.8829 27.2233 26.7126 26.9282C26.0657 25.816 25.9863 24.6698 26.4856 23.7959C26.985 22.922 28.0177 22.4227 29.3115 22.4227C30.0378 22.4227 30.6166 21.8439 30.6166 21.1176V19.1202C30.6166 18.4052 30.0378 17.8151 29.3115 17.8151C28.0177 17.8151 26.985 17.3157 26.4856 16.4419C25.9863 15.568 26.0657 14.4218 26.7126 13.3096C26.8829 13.0145 26.9283 12.6627 26.8375 12.3222C26.7467 11.9818 26.531 11.7094 26.236 11.5278L24.2726 10.4043C23.7846 10.1092 23.1377 10.2794 22.8427 10.7788L22.7178 10.9944C22.0709 12.118 21.129 12.7535 20.1189 12.7535C19.1089 12.7535 18.1669 12.118 17.5201 10.9944L17.3952 10.7674C17.1115 10.2908 16.476 10.1206 15.988 10.4043L14.0246 11.5392C13.7296 11.7094 13.5026 11.9931 13.4118 12.3336C13.321 12.6741 13.3664 13.0259 13.5366 13.3209C14.1835 14.4331 14.2629 15.5794 13.7636 16.4532C13.2643 17.3271 12.2315 17.8264 10.9377 17.8264C10.2114 17.8264 9.63262 18.4052 9.63262 19.1315V21.1289C9.63262 21.8439 10.2114 22.434 10.9377 22.434C12.2315 22.434 13.2643 22.9334 13.7636 23.8073C14.2629 24.6811 14.1835 25.8274 13.5366 26.9395C13.3664 27.2346 13.321 27.5864 13.4118 27.9269C13.5026 28.2674 13.7182 28.5397 14.0133 28.7213L15.9766 29.8448C16.2149 29.9924 16.4987 30.0264 16.7597 29.9583C17.0321 29.8902 17.259 29.7087 17.4066 29.4703L17.5314 29.2547C18.1783 28.1425 19.1203 27.4956 20.1303 27.4956Z" fill="white"/>
</svg>
