<svg width="38" height="38" viewBox="0 0 38 38" fill="none" xmlns="http://www.w3.org/2000/svg">
<rect width="38" height="38" rx="8" fill="#1C1C1C"/>
<path d="M19.1237 23.1667C16.892 23.1667 15.0807 21.3554 15.0807 19.1237C15.0807 16.8919 16.892 15.0807 19.1237 15.0807C21.3555 15.0807 23.1667 16.8919 23.1667 19.1237C23.1667 21.3554 21.3555 23.1667 19.1237 23.1667ZM19.1237 16.6979C17.7868 16.6979 16.6979 17.7868 16.6979 19.1237C16.6979 20.4606 17.7868 21.5495 19.1237 21.5495C20.4606 21.5495 21.5495 20.4606 21.5495 19.1237C21.5495 17.7868 20.4606 16.6979 19.1237 16.6979Z" fill="white"/>
<path d="M22.5846 30.11C22.3582 30.11 22.1318 30.0776 21.9054 30.0237C21.237 29.8404 20.6763 29.42 20.3205 28.827L20.1912 28.6114C19.5551 27.5117 18.6818 27.5117 18.0457 28.6114L17.9271 28.8162C17.5713 29.42 17.0107 29.8512 16.3422 30.0237C15.663 30.207 14.9622 30.11 14.3692 29.7542L12.5148 28.6868C11.8572 28.3095 11.3828 27.6949 11.1779 26.951C10.9839 26.2071 11.0809 25.4416 11.4582 24.784C11.7709 24.2341 11.8572 23.7382 11.6739 23.4255C11.4906 23.1129 11.027 22.9296 10.3909 22.9296C8.8168 22.9296 7.53381 21.6466 7.53381 20.0725V18.175C7.53381 16.6009 8.8168 15.3179 10.3909 15.3179C11.027 15.3179 11.4906 15.1346 11.6739 14.822C11.8572 14.5093 11.7817 14.0134 11.4582 13.4635C11.0809 12.8058 10.9839 12.0296 11.1779 11.2964C11.372 10.5525 11.8464 9.93798 12.5148 9.56064L14.38 8.49328C15.5983 7.77092 17.2047 8.1914 17.9379 9.43126L18.0672 9.64689C18.7033 10.7466 19.5766 10.7466 20.2127 9.64689L20.3313 9.44204C21.0645 8.1914 22.6709 7.77092 23.9 8.50406L25.7544 9.57142C26.412 9.94877 26.8864 10.5633 27.0913 11.3072C27.2853 12.0511 27.1883 12.8166 26.8109 13.4743C26.4983 14.0241 26.412 14.5201 26.5953 14.8327C26.7786 15.1454 27.2422 15.3287 27.8783 15.3287C29.4524 15.3287 30.7354 16.6117 30.7354 18.1858V20.0833C30.7354 21.6574 29.4524 22.9403 27.8783 22.9403C27.2422 22.9403 26.7786 23.1236 26.5953 23.4363C26.412 23.749 26.4875 24.2449 26.8109 24.7947C27.1883 25.4524 27.2961 26.2287 27.0913 26.9618C26.8972 27.7057 26.4228 28.3203 25.7544 28.6976L23.8892 29.765C23.4795 29.9914 23.0375 30.11 22.5846 30.11ZM19.1238 26.1209C20.0834 26.1209 20.9782 26.7246 21.5928 27.792L21.7113 27.9968C21.8407 28.2232 22.0564 28.385 22.3151 28.4496C22.5739 28.5143 22.8326 28.482 23.0482 28.3526L24.9134 27.2745C25.1937 27.1127 25.4094 26.8432 25.4956 26.5198C25.5819 26.1963 25.5387 25.8621 25.377 25.5818C24.7625 24.5252 24.687 23.4363 25.1614 22.6061C25.6358 21.776 26.6169 21.3016 27.846 21.3016C28.536 21.3016 29.0858 20.7517 29.0858 20.0617V18.1642C29.0858 17.485 28.536 16.9243 27.846 16.9243C26.6169 16.9243 25.6358 16.4499 25.1614 15.6198C24.687 14.7896 24.7625 13.7007 25.377 12.6441C25.5387 12.3638 25.5819 12.0296 25.4956 11.7061C25.4094 11.3827 25.2045 11.1239 24.9242 10.9514L23.059 9.88408C22.5954 9.60376 21.9809 9.76548 21.7006 10.2399L21.582 10.4447C20.9674 11.5121 20.0726 12.1158 19.113 12.1158C18.1535 12.1158 17.2586 11.5121 16.6441 10.4447L16.5255 10.2291C16.256 9.77626 15.6522 9.61454 15.1886 9.88408L13.3234 10.9622C13.0431 11.1239 12.8275 11.3935 12.7412 11.7169C12.655 12.0404 12.6981 12.3746 12.8598 12.6549C13.4744 13.7115 13.5498 14.8004 13.0755 15.6306C12.6011 16.4607 11.62 16.9351 10.3909 16.9351C9.70087 16.9351 9.15102 17.485 9.15102 18.175V20.0725C9.15102 20.7517 9.70087 21.3124 10.3909 21.3124C11.62 21.3124 12.6011 21.7867 13.0755 22.6169C13.5498 23.4471 13.4744 24.536 12.8598 25.5926C12.6981 25.8729 12.655 26.2071 12.7412 26.5306C12.8275 26.854 13.0323 27.1127 13.3126 27.2853L15.1778 28.3526C15.4042 28.4928 15.6738 28.5251 15.9217 28.4604C16.1805 28.3957 16.3961 28.2232 16.5363 27.9968L16.6549 27.792C17.2694 26.7354 18.1643 26.1209 19.1238 26.1209Z" fill="white"/>
</svg>
