<svg width="35" height="35" viewBox="0 0 35 35" fill="none" xmlns="http://www.w3.org/2000/svg">
<path d="M32.0837 33.1771H2.91699C2.31908 33.1771 1.82324 32.6812 1.82324 32.0833C1.82324 31.4854 2.31908 30.9896 2.91699 30.9896H32.0837C32.6816 30.9896 33.1774 31.4854 33.1774 32.0833C33.1774 32.6812 32.6816 33.1771 32.0837 33.1771Z" fill="#272727"/>
<path d="M21.1458 9.08536C19.775 9.08536 18.4042 8.82289 17.0917 8.29789C16.6833 8.13747 16.4062 7.72912 16.4062 7.27704V2.90204C16.4062 2.53745 16.5812 2.20205 16.8875 1.99788C17.1937 1.79371 17.5729 1.74994 17.9083 1.88119C19.9937 2.71244 22.2979 2.71244 24.3833 1.88119C24.7187 1.74994 25.0979 1.79371 25.4042 1.99788C25.7104 2.20205 25.8854 2.53745 25.8854 2.90204V7.27704C25.8854 7.72912 25.6083 8.12289 25.2 8.29789C23.8875 8.82289 22.5167 9.08536 21.1458 9.08536ZM18.5938 6.51868C20.2563 7.02909 22.0354 7.02909 23.6979 6.51868V4.40416C22.0208 4.8125 20.2708 4.8125 18.5938 4.40416V6.51868Z" fill="#272727"/>
<path d="M17.5 12.7604C16.9021 12.7604 16.4062 12.2645 16.4062 11.6666V7.29163C16.4062 6.69371 16.9021 6.19788 17.5 6.19788C18.0979 6.19788 18.5938 6.69371 18.5938 7.29163V11.6666C18.5938 12.2645 18.0979 12.7604 17.5 12.7604Z" fill="#272727"/>
<path d="M29.1663 33.1771H5.83301C5.23509 33.1771 4.73926 32.6812 4.73926 32.0833V16.0416C4.73926 12.5125 6.67884 10.5729 10.208 10.5729H24.7913C28.3205 10.5729 30.2601 12.5125 30.2601 16.0416V32.0833C30.2601 32.6812 29.7643 33.1771 29.1663 33.1771ZM6.92676 30.9896H28.0726V16.0416C28.0726 13.7375 27.0955 12.7604 24.7913 12.7604H10.208C7.90384 12.7604 6.92676 13.7375 6.92676 16.0416V30.9896Z" fill="#272727"/>
<path d="M28.3206 18.5938H6.67896C6.08104 18.5938 5.58521 18.0979 5.58521 17.5C5.58521 16.9021 6.08104 16.4062 6.67896 16.4062H28.3206C28.9185 16.4062 29.4144 16.9021 29.4144 17.5C29.4144 18.0979 28.9185 18.5938 28.3206 18.5938Z" fill="#272727"/>
<path d="M12.7458 17.5H10.5583V32.0833H12.7458V17.5Z" fill="#272727"/>
<path d="M18.5798 17.5H16.3923V32.0833H18.5798V17.5Z" fill="#272727"/>
<path d="M24.4128 17.5H22.2253V32.0833H24.4128V17.5Z" fill="#272727"/>
</svg>
