<svg width="30" height="30" viewBox="0 0 30 30" fill="none" xmlns="http://www.w3.org/2000/svg">
<path d="M27.5002 28.4375H2.50024C1.98774 28.4375 1.56274 28.0125 1.56274 27.5C1.56274 26.9875 1.98774 26.5625 2.50024 26.5625H27.5002C28.0127 26.5625 28.4377 26.9875 28.4377 27.5C28.4377 28.0125 28.0127 28.4375 27.5002 28.4375Z" fill="#272727"/>
<path d="M18.125 7.78744C16.95 7.78744 15.775 7.56247 14.65 7.11247C14.3 6.97497 14.0625 6.62496 14.0625 6.23746V2.48746C14.0625 2.17496 14.2125 1.88746 14.475 1.71246C14.7375 1.53746 15.0625 1.49994 15.35 1.61244C17.1375 2.32494 19.1125 2.32494 20.9 1.61244C21.1875 1.49994 21.5125 1.53746 21.775 1.71246C22.0375 1.88746 22.1875 2.17496 22.1875 2.48746V6.23746C22.1875 6.62496 21.95 6.96247 21.6 7.11247C20.475 7.56247 19.3 7.78744 18.125 7.78744ZM15.9375 5.58743C17.3625 6.02493 18.8875 6.02493 20.3125 5.58743V3.77499C18.875 4.12499 17.375 4.12499 15.9375 3.77499V5.58743Z" fill="#272727"/>
<path d="M15 10.9375C14.4875 10.9375 14.0625 10.5125 14.0625 9.99997V6.24997C14.0625 5.73747 14.4875 5.31247 15 5.31247C15.5125 5.31247 15.9375 5.73747 15.9375 6.24997V9.99997C15.9375 10.5125 15.5125 10.9375 15 10.9375Z" fill="#272727"/>
<path d="M24.9998 28.4375H4.99976C4.48726 28.4375 4.06226 28.0125 4.06226 27.5V13.75C4.06226 10.725 5.72476 9.06247 8.74975 9.06247H21.2498C24.2748 9.06247 25.9373 10.725 25.9373 13.75V27.5C25.9373 28.0125 25.5123 28.4375 24.9998 28.4375ZM5.93726 26.5625H24.0623V13.75C24.0623 11.775 23.2248 10.9375 21.2498 10.9375H8.74975C6.77476 10.9375 5.93726 11.775 5.93726 13.75V26.5625Z" fill="#272727"/>
<path d="M24.2749 15.9375H5.72485C5.21235 15.9375 4.78735 15.5125 4.78735 15C4.78735 14.4875 5.21235 14.0625 5.72485 14.0625H24.2749C24.7874 14.0625 25.2124 14.4875 25.2124 15C25.2124 15.5125 24.7874 15.9375 24.2749 15.9375Z" fill="#272727"/>
<path d="M10.925 15H9.05005V27.5H10.925V15Z" fill="#272727"/>
<path d="M15.9255 15H14.0505V27.5H15.9255V15Z" fill="#272727"/>
<path d="M20.9253 15H19.0503V27.5H20.9253V15Z" fill="#272727"/>
</svg>
