<svg width="40" height="40" viewBox="0 0 40 40" fill="none" xmlns="http://www.w3.org/2000/svg">
<path d="M36.6671 37.9166H3.33374C2.65041 37.9166 2.08374 37.35 2.08374 36.6666C2.08374 35.9833 2.65041 35.4166 3.33374 35.4166H36.6671C37.3504 35.4166 37.9171 35.9833 37.9171 36.6666C37.9171 37.35 37.3504 37.9166 36.6671 37.9166Z" fill="#272727"/>
<path d="M24.1667 10.3833C22.6 10.3833 21.0333 10.0833 19.5333 9.48331C19.0667 9.29997 18.75 8.83329 18.75 8.31662V3.31662C18.75 2.89995 18.95 2.51663 19.3 2.28329C19.65 2.04996 20.0833 1.99993 20.4667 2.14993C22.85 3.09993 25.4833 3.09993 27.8667 2.14993C28.25 1.99993 28.6833 2.04996 29.0333 2.28329C29.3833 2.51663 29.5833 2.89995 29.5833 3.31662V8.31662C29.5833 8.83329 29.2667 9.28331 28.8 9.48331C27.3 10.0833 25.7333 10.3833 24.1667 10.3833ZM21.25 7.44992C23.15 8.03325 25.1833 8.03325 27.0833 7.44992V5.03333C25.1667 5.5 23.1667 5.5 21.25 5.03333V7.44992Z" fill="#272727"/>
<path d="M20 14.5833C19.3167 14.5833 18.75 14.0166 18.75 13.3333V8.33328C18.75 7.64995 19.3167 7.08328 20 7.08328C20.6833 7.08328 21.25 7.64995 21.25 8.33328V13.3333C21.25 14.0166 20.6833 14.5833 20 14.5833Z" fill="#272727"/>
<path d="M33.3329 37.9166H6.66626C5.98293 37.9166 5.41626 37.35 5.41626 36.6666V18.3333C5.41626 14.3 7.63293 12.0833 11.6663 12.0833H28.3329C32.3663 12.0833 34.5829 14.3 34.5829 18.3333V36.6666C34.5829 37.35 34.0163 37.9166 33.3329 37.9166ZM7.91626 35.4166H32.0829V18.3333C32.0829 15.7 30.9663 14.5833 28.3329 14.5833H11.6663C9.03293 14.5833 7.91626 15.7 7.91626 18.3333V35.4166Z" fill="#272727"/>
<path d="M32.3664 21.25H7.63306C6.94972 21.25 6.38306 20.6833 6.38306 20C6.38306 19.3167 6.94972 18.75 7.63306 18.75H32.3664C33.0497 18.75 33.6164 19.3167 33.6164 20C33.6164 20.6833 33.0497 21.25 32.3664 21.25Z" fill="#272727"/>
<path d="M14.5667 20H12.0667V36.6667H14.5667V20Z" fill="#272727"/>
<path d="M21.2341 20H18.7341V36.6667H21.2341V20Z" fill="#272727"/>
<path d="M27.9004 20H25.4004V36.6667H27.9004V20Z" fill="#272727"/>
</svg>
