<svg width="25" height="26" viewBox="0 0 25 26" fill="none" xmlns="http://www.w3.org/2000/svg">
<path d="M18.5826 11.7005C18.4174 11.7005 18.2522 11.6481 18.1077 11.5329C14.6286 8.80841 10.1378 8.80841 6.66906 11.5329C6.32838 11.7948 5.84317 11.732 5.58508 11.3966C5.32699 11.0508 5.38893 10.5583 5.71929 10.2964C9.76616 7.12133 15.0002 7.12133 19.0574 10.2964C19.3981 10.5583 19.4601 11.0508 19.1916 11.3966C19.0471 11.5957 18.8097 11.7005 18.5826 11.7005Z" fill="#272727"/>
<path d="M16.9307 14.9385C16.7655 14.9385 16.6003 14.8861 16.4558 14.7708C13.9781 12.8322 10.7881 12.8322 8.31042 14.7708C7.96974 15.0328 7.48453 14.9699 7.22644 14.6346C6.96835 14.2888 7.03029 13.7963 7.36064 13.5343C10.4061 11.1452 14.3498 11.1452 17.3952 13.5343C17.7359 13.7963 17.7979 14.2888 17.5294 14.6346C17.3952 14.8337 17.1681 14.9385 16.9307 14.9385Z" fill="#272727"/>
<path d="M14.6596 18.1764C14.4944 18.1764 14.3293 18.124 14.1847 18.0087C13.0904 17.1495 11.6761 17.1495 10.5818 18.0087C10.2411 18.2707 9.75589 18.2078 9.4978 17.8725C9.23971 17.5267 9.30165 17.0342 9.63201 16.7722C11.2735 15.4833 13.4827 15.4833 15.1242 16.7722C15.4649 17.0342 15.5268 17.5267 15.2584 17.8725C15.1242 18.0716 14.8971 18.1764 14.6596 18.1764Z" fill="#272727"/>
<path d="M15.4854 24.3169H9.29124C3.68549 24.3169 1.29041 21.8858 1.29041 16.1959V9.90869C1.29041 4.21876 3.68549 1.78771 9.29124 1.78771H15.4854C21.0912 1.78771 23.4863 4.21876 23.4863 9.90869V16.1959C23.4863 21.8858 21.0912 24.3169 15.4854 24.3169ZM9.29124 3.35951C4.53203 3.35951 2.83895 5.07802 2.83895 9.90869V16.1959C2.83895 21.0266 4.53203 22.7451 9.29124 22.7451H15.4854C20.2446 22.7451 21.9377 21.0266 21.9377 16.1959V9.90869C21.9377 5.07802 20.2446 3.35951 15.4854 3.35951H9.29124Z" fill="#272727"/>
</svg>
