<svg width="14" height="14" viewBox="0 0 14 14" fill="none" xmlns="http://www.w3.org/2000/svg">
<path d="M5.67028 2.99047C6.17467 1.73304 6.42686 1.10432 6.83659 1.01718C6.94432 0.994272 7.05567 0.994272 7.16341 1.01718C7.57314 1.10432 7.82533 1.73304 8.32972 2.99047C8.61655 3.70554 8.75997 4.06308 9.02833 4.30626C9.1036 4.37447 9.1853 4.43522 9.2723 4.48766C9.58247 4.6746 9.96967 4.70928 10.7441 4.77863C12.055 4.89603 12.7104 4.95474 12.9106 5.32846C12.952 5.40586 12.9802 5.48966 12.994 5.57639C13.0603 5.99511 12.5785 6.4335 11.6148 7.31027L11.3471 7.55375C10.8966 7.96366 10.6713 8.16861 10.541 8.42439C10.4628 8.57783 10.4104 8.74307 10.3859 8.9135C10.3449 9.19763 10.4109 9.49495 10.5428 10.0896L10.59 10.3021C10.8266 11.3685 10.9449 11.9017 10.7972 12.1638C10.6646 12.3992 10.4202 12.5499 10.1503 12.5628C9.8498 12.5772 9.4264 12.2322 8.57959 11.5421C8.02168 11.0875 7.74272 10.8602 7.43305 10.7714C7.15005 10.6903 6.84995 10.6903 6.56695 10.7714C6.25728 10.8602 5.97832 11.0875 5.42041 11.5421C4.5736 12.2322 4.1502 12.5772 3.84971 12.5628C3.57979 12.5499 3.33544 12.3992 3.20279 12.1638C3.05511 11.9017 3.17341 11.3685 3.41002 10.3021L3.45716 10.0896C3.5891 9.49495 3.65507 9.19763 3.61413 8.9135C3.58957 8.74307 3.53716 8.57783 3.459 8.42439C3.3287 8.16861 3.10342 7.96366 2.65287 7.55375L2.38525 7.31027C1.42154 6.4335 0.93968 5.99511 1.00604 5.57639C1.01978 5.48966 1.04797 5.40586 1.08942 5.32846C1.28958 4.95474 1.94504 4.89603 3.25594 4.77863C4.03033 4.70928 4.41753 4.6746 4.7277 4.48766C4.8147 4.43522 4.8964 4.37447 4.97167 4.30626C5.24003 4.06308 5.38345 3.70554 5.67028 2.99047Z" fill="#FFC107" stroke="#FFC107"/>
</svg>
