<svg width="19" height="19" viewBox="0 0 19 19" fill="none" xmlns="http://www.w3.org/2000/svg">
<path d="M15.4403 7.11947H17.2201C17.3775 7.11947 17.5284 7.18197 17.6397 7.29324C17.7509 7.4045 17.8134 7.5554 17.8134 7.71275V10.0859C17.8134 10.2433 17.7509 10.3942 17.6397 10.5054C17.5284 10.6167 17.3775 10.6792 17.2201 10.6792H11.2873C11.1299 10.6792 10.979 10.7417 10.8677 10.853C10.7565 10.9642 10.694 11.1151 10.694 11.2725C10.694 11.4298 10.7565 11.5807 10.8677 11.692C10.979 11.8033 11.1299 11.8658 11.2873 11.8658H17.2201C17.6922 11.8658 18.1449 11.6782 18.4787 11.3445C18.8125 11.0107 19 10.558 19 10.0859V7.71275C19 7.2407 18.8125 6.78799 18.4787 6.4542C18.1449 6.12041 17.6922 5.93289 17.2201 5.93289H15.4403C15.2829 5.93289 15.132 5.9954 15.0208 6.10666C14.9095 6.21792 14.847 6.36883 14.847 6.52618C14.847 6.68353 14.9095 6.83443 15.0208 6.9457C15.132 7.05696 15.2829 7.11947 15.4403 7.11947ZM4.16781 10.6792H2.98124L3.57452 11.2725V6.52618L2.98124 7.11947H8.91411C9.07146 7.11947 9.22237 7.05696 9.33363 6.9457C9.44489 6.83443 9.5074 6.68353 9.5074 6.52618C9.5074 6.36883 9.44489 6.21792 9.33363 6.10666C9.22237 5.9954 9.07146 5.93289 8.91411 5.93289H2.98124C2.82389 5.93289 2.67298 5.9954 2.56172 6.10666C2.45046 6.21792 2.38795 6.36883 2.38795 6.52618V11.2725C2.38795 11.6 2.65374 11.8658 2.98124 11.8658H4.16781C4.32516 11.8658 4.47607 11.8033 4.58733 11.692C4.69859 11.5807 4.7611 11.4298 4.7611 11.2725C4.7611 11.1151 4.69859 10.9642 4.58733 10.853C4.47607 10.7417 4.32516 10.6792 4.16781 10.6792ZM11.8805 9.49262V11.2725C11.8805 11.4298 11.9431 11.5807 12.0543 11.692C12.1656 11.8033 12.3165 11.8658 12.4738 11.8658C12.6312 11.8658 12.7821 11.8033 12.8934 11.692C13.0046 11.5807 13.0671 11.4298 13.0671 11.2725V9.49262C13.0671 9.33527 13.0046 9.18436 12.8934 9.0731C12.7821 8.96184 12.6312 8.89933 12.4738 8.89933C12.3165 8.89933 12.1656 8.96184 12.0543 9.0731C11.9431 9.18436 11.8805 9.33527 11.8805 9.49262ZM0.0147992 6.52618V11.2725C0.0147992 11.4298 0.0773061 11.5807 0.188569 11.692C0.299832 11.8033 0.450737 11.8658 0.608087 11.8658C0.765436 11.8658 0.916341 11.8033 1.0276 11.692C1.13887 11.5807 1.20137 11.4298 1.20137 11.2725V6.52618C1.20137 6.36883 1.13887 6.21792 1.0276 6.10666C0.916341 5.9954 0.765436 5.93289 0.608087 5.93289C0.450737 5.93289 0.299832 5.9954 0.188569 6.10666C0.0773061 6.21792 0.0147992 6.36883 0.0147992 6.52618ZM1.02734 18.8112L18.826 1.01256C18.9308 0.900092 18.9878 0.751338 18.9851 0.597636C18.9824 0.443934 18.9201 0.297285 18.8114 0.188584C18.7027 0.0798838 18.5561 0.0176187 18.4024 0.0149068C18.2487 0.0121949 18.0999 0.069248 17.9875 0.174046L0.18883 17.9727C0.13054 18.027 0.0837874 18.0925 0.0513607 18.1653C0.018934 18.238 0.00149786 18.3166 9.23322e-05 18.3963C-0.00131319 18.4759 0.0133407 18.5551 0.04318 18.6289C0.0730192 18.7028 0.117432 18.7699 0.17377 18.8262C0.230108 18.8826 0.297215 18.927 0.37109 18.9568C0.444965 18.9867 0.524093 19.0013 0.603754 18.9999C0.683415 18.9985 0.761977 18.9811 0.834753 18.9487C0.907529 18.9162 0.973028 18.8695 1.02734 18.8112ZM3.57452 0.593303C3.57452 1.06535 3.387 1.51807 3.05321 1.85186C2.71943 2.18564 2.26671 2.37317 1.79466 2.37317C1.32261 2.37317 0.869898 2.56069 0.536109 2.89448C0.20232 3.22826 0.0147992 3.68098 0.0147992 4.15303C0.0147992 4.31038 0.0773061 4.46128 0.188569 4.57255C0.299832 4.68381 0.450737 4.74632 0.608087 4.74632C0.765436 4.74632 0.916341 4.68381 1.0276 4.57255C1.13887 4.46128 1.20137 4.31038 1.20137 4.15303C1.20137 3.99568 1.26388 3.84477 1.37514 3.73351C1.48641 3.62225 1.63731 3.55974 1.79466 3.55974C2.18422 3.55974 2.56996 3.48301 2.92987 3.33393C3.28977 3.18486 3.61679 2.96635 3.89225 2.69089C4.16771 2.41543 4.38622 2.08841 4.53529 1.72851C4.68437 1.3686 4.7611 0.982861 4.7611 0.593303C4.7611 0.435953 4.69859 0.285048 4.58733 0.173785C4.47607 0.0625222 4.32516 1.52588e-05 4.16781 1.52588e-05C4.01046 1.52588e-05 3.85956 0.0625222 3.74829 0.173785C3.63703 0.285048 3.57452 0.435953 3.57452 0.593303Z" fill="#272727"/>
</svg>
